<svg width="59" height="58" xmlns="http://www.w3.org/2000/svg" xmlns:xlink="http://www.w3.org/1999/xlink" xml:space="preserve" overflow="hidden"><defs><clipPath id="clip0"><rect x="108" y="221" width="59" height="58"/></clipPath></defs><g clip-path="url(#clip0)" transform="translate(-108 -221)"><path d="M0 0C5.92546 4.48761 9.78546 10.7869 11.3557 18.0853 11.7985 23.7579 11.8051 29.3443 9.46766 34.6053 9.27843 35.0422 9.08921 35.4791 8.89425 35.9292 5.36346 43.1545-1.1195 48.5405-8.67484 51.1548-16.2026 53.4387-25.0336 52.8837-32.022 49.2415-40.0555 44.7608-44.8706 38.315-47.4292 29.4693-48.6363 23.8587-48.0755 17.1692-45.7563 11.9493-45.5671 11.5125-45.3779 11.0756-45.1829 10.6255-41.6521 3.4002-35.1692-1.98577-27.6138-4.60016-18.0771-7.49347-8.03078-5.68079 0 0Z" fill="#006FC0" transform="matrix(1 0 0 1.00722 155.644 226.554)"/></g></svg>