<svg xmlns="http://www.w3.org/2000/svg" viewBox="0 0 192 192"><g id="b94e19f0-2bfc-42f9-9c61-c65c895990a2" data-name="Layer 1"><g id="f0d973f0-b01c-4980-a54c-2c1c423639a4" data-name="cf8000ee-3c31-4298-86ec-1bb0d08b667b"><g id="bafb1012-a1dd-40d7-90a9-1ae9c7c8ef5d" data-name="32794380-bf7b-451f-8d4e-47dfd249c3a3"><path id="e6a3517a-23bd-45aa-b86c-e1af356a41ec" data-name="9f807cff-7b26-40ad-b8d2-3409271d810e" d="M158,94h16L158,78V30H134V54L103,21.5c-4.28-4.56-9.9-4.38-14,0L18,94H34v70a10,10,0,0,0,10,10H148a10,10,0,0,0,10-10Z" fill="none" stroke="#666" stroke-linecap="round" stroke-linejoin="round" stroke-width="4"/><rect width="192" height="192" fill="none"/></g></g></g><g id="a4d8bd21-52ce-47ee-bbbe-5fcba918105e" data-name="Layer 2"><path id="b7597b65-f03d-4701-b707-e9915b5cc10b" data-name="ef2ad056-d8fc-4e13-85aa-df4f45d95617" d="M49,102.39a66.42,66.42,0,0,1,93.92,0h0" fill="none" stroke="#e60000" stroke-linecap="round" stroke-linejoin="round" stroke-width="6"/><path d="M62.45,116.62a47.45,47.45,0,0,1,67.1,0h0" fill="none" stroke="#e60000" stroke-linecap="round" stroke-linejoin="round" stroke-width="6"/><path d="M76.5,130.57a27.56,27.56,0,0,1,39,0h0" fill="none" stroke="#e60000" stroke-linecap="round" stroke-linejoin="round" stroke-width="6"/><circle cx="95.61" cy="145" r="4.92" fill="#666"/></g></svg>