<svg width="133" height="200" xmlns="http://www.w3.org/2000/svg" xmlns:xlink="http://www.w3.org/1999/xlink" xml:space="preserve" overflow="hidden"><g transform="translate(-176 -705)"><rect x="182.5" y="770.5" width="120" height="132" stroke="#FFFFFF" stroke-width="4.58333" stroke-miterlimit="8" fill="#C00000"/><path d="M182.5 770.5 242.5 709.5 302.5 770.5Z" stroke="#FFFFFF" stroke-width="4.58333" stroke-miterlimit="8" fill="#C00000" fill-rule="evenodd"/><rect x="272" y="786" width="16.0002" height="16.9998" fill="#FFFFFF"/><rect x="272" y="812" width="16.0002" height="16.0002" fill="#FFFFFF"/><rect x="272" y="837" width="16.0002" height="16.9998" fill="#FFFFFF"/><rect x="272" y="862" width="16.0002" height="16.9998" fill="#FFFFFF"/><rect x="234" y="786" width="16.9998" height="16.9998" fill="#FFFFFF"/><rect x="234" y="812" width="16.9998" height="16.0002" fill="#FFFFFF"/><rect x="234" y="837" width="16.9998" height="16.9998" fill="#FFFFFF"/><rect x="234" y="862" width="16.9998" height="16.9998" fill="#FFFFFF"/><rect x="197" y="786" width="16.0002" height="16.9998" fill="#FFFFFF"/><rect x="197" y="812" width="16.0002" height="16.0002" fill="#FFFFFF"/><rect x="197" y="837" width="16.0002" height="16.9998" fill="#FFFFFF"/><rect x="197" y="862" width="16.0002" height="16.9998" fill="#FFFFFF"/></g></svg>