<svg width="72" height="72" xmlns="http://www.w3.org/2000/svg" xmlns:xlink="http://www.w3.org/1999/xlink" xml:space="preserve" overflow="hidden"><g transform="translate(-578 -313)"><path d="M642.125 369.7 632.75 360.325C631.475 359.05 629.75 358.6 628.1 358.9L624.8 355.6C627.725 351.85 629.45 347.05 629.45 341.95 629.45 329.575 619.325 319.45 606.95 319.45 594.575 319.45 584.45 329.575 584.45 341.95 584.45 354.325 594.575 364.45 606.95 364.45 612.05 364.45 616.775 362.725 620.6 359.8L623.9 363.1C623.6 364.75 624.05 366.475 625.325 367.75L634.7 377.125C635.75 378.175 637.1 378.7 638.45 378.7 639.8 378.7 641.15 378.175 642.2 377.125 644.15 375.025 644.15 371.725 642.125 369.7ZM606.875 359.875C596.975 359.875 588.875 351.775 588.875 341.875 588.875 331.975 596.975 323.875 606.875 323.875 616.775 323.875 624.875 331.975 624.875 341.875 624.875 351.775 616.775 359.875 606.875 359.875Z" fill="#FFFFFF"/></g></svg>