<svg width="1452" height="430" xmlns="http://www.w3.org/2000/svg" xmlns:xlink="http://www.w3.org/1999/xlink" xml:space="preserve" overflow="hidden"><defs><filter id="fx0" x="-10%" y="-10%" width="120%" height="120%" filterUnits="userSpaceOnUse" primitiveUnits="userSpaceOnUse"><feComponentTransfer color-interpolation-filters="sRGB"><feFuncR type="discrete" tableValues="1 1"/><feFuncG type="discrete" tableValues="1 1"/><feFuncB type="discrete" tableValues="1 1"/><feFuncA type="linear" slope="0.8" intercept="0"/></feComponentTransfer><feGaussianBlur stdDeviation="6.11111 6.11111"/></filter><filter id="fx1" x="-10%" y="-10%" width="120%" height="120%" filterUnits="userSpaceOnUse" primitiveUnits="userSpaceOnUse"><feComponentTransfer color-interpolation-filters="sRGB"><feFuncR type="discrete" tableValues="0 0"/><feFuncG type="discrete" tableValues="0 0"/><feFuncB type="discrete" tableValues="0 0"/><feFuncA type="linear" slope="0.4" intercept="0"/></feComponentTransfer><feGaussianBlur stdDeviation="6.11111 6.11111"/></filter><filter id="fx2" x="-10%" y="-10%" width="120%" height="120%" filterUnits="userSpaceOnUse" primitiveUnits="userSpaceOnUse"><feComponentTransfer color-interpolation-filters="sRGB"><feFuncR type="discrete" tableValues="0 0"/><feFuncG type="discrete" tableValues="0 0"/><feFuncB type="discrete" tableValues="0 0"/><feFuncA type="linear" slope="0.4" intercept="0"/></feComponentTransfer><feGaussianBlur stdDeviation="6.11111 6.12882"/></filter><clipPath id="clip3"><rect x="636" y="686" width="1452" height="430"/></clipPath><clipPath id="clip4"><rect x="34.5" y="34.6" width="263" height="86.7507"/></clipPath></defs><g clip-path="url(#clip3)" transform="translate(-636 -686)"><g filter="url(#fx0)" transform="matrix(2 0 0 2 635 685)"><g><path d="M18.8977 99.8977C18.8977 55.1627 55.1626 18.8978 99.8976 18.8978L610.898 18.8978C655.633 18.8978 691.898 55.1627 691.898 99.8977L691.898 99.8977C691.898 144.633 655.633 180.898 610.898 180.898L99.8976 180.898C55.1626 180.898 18.8977 144.633 18.8977 99.8977Z" fill="#F0EEEF" fill-rule="evenodd"/></g></g><path d="M689 901C689 811.53 761.53 739 851 739L1873 739C1962.47 739 2035 811.53 2035 901L2035 901C2035 990.47 1962.47 1063 1873 1063L851 1063C761.53 1063 689 990.47 689 901Z" fill="#F0EEEF" fill-rule="evenodd"/><g filter="url(#fx1)" transform="matrix(2 0 0 2 667 717)"><g><path d="M19.1022 100.102C19.1022 55.3672 55.3671 19.1023 100.102 19.1023L611.102 19.1023C655.837 19.1023 692.102 55.3672 692.102 100.102L692.102 100.102C692.102 144.837 655.837 181.102 611.102 181.102L100.102 181.102C55.3671 181.102 19.1022 144.837 19.1022 100.102Z" fill="#F0EEEF" fill-rule="evenodd"/></g></g><g clip-path="url(#clip4)" filter="url(#fx2)" transform="matrix(2 0 0 1.99422 1134 764)"><g><path d="M62.625-74.125C62.625-72.9167 62.5729-71.8854 62.4687-71.0312 62.3646-70.1771 62.2083-69.4896 62-68.9687 61.7917-68.4479 61.5312-68.0625 61.2187-67.8125 60.9062-67.5625 60.5625-67.4375 60.1875-67.4375L39.9375-67.4375 39.9375-2.25C39.9375-1.83333 39.8021-1.45833 39.5312-1.125 39.2604-0.791667 38.8125-0.520833 38.1875-0.3125 37.5625-0.104167 36.7187 0.0625 35.6562 0.1875 34.5937 0.3125 33.2708 0.375 31.6875 0.375 30.1042 0.375 28.7812 0.3125 27.7187 0.1875 26.6562 0.0625 25.8125-0.104167 25.1875-0.3125 24.5625-0.520833 24.1146-0.791667 23.8437-1.125 23.5729-1.45833 23.4375-1.83333 23.4375-2.25L23.4375-67.4375 3.1875-67.4375C2.77083-67.4375 2.41667-67.5625 2.125-67.8125 1.83333-68.0625 1.58333-68.4479 1.375-68.9687 1.16667-69.4896 1.01042-70.1771 0.90625-71.0312 0.802083-71.8854 0.75-72.9167 0.75-74.125 0.75-75.375 0.802083-76.4375 0.90625-77.3125 1.01042-78.1875 1.16667-78.8854 1.375-79.4062 1.58333-79.9271 1.83333-80.3021 2.125-80.5312 2.41667-80.7604 2.77083-80.875 3.1875-80.875L60.1875-80.875C60.5625-80.875 60.9062-80.7604 61.2187-80.5312 61.5312-80.3021 61.7917-79.9271 62-79.4062 62.2083-78.8854 62.3646-78.1875 62.4687-77.3125 62.5729-76.4375 62.625-75.375 62.625-74.125ZM132.406-2.125C132.406-1.66667 132.323-1.28125 132.156-0.96875 131.99-0.65625 131.594-0.395833 130.969-0.1875 130.344 0.0208333 129.427 0.166667 128.219 0.25 127.01 0.333333 125.365 0.375 123.281 0.375 121.531 0.375 120.135 0.333333 119.094 0.25 118.052 0.166667 117.229 0.0104167 116.625-0.21875 116.021-0.447917 115.594-0.739583 115.344-1.09375 115.094-1.44792 114.885-1.875 114.719-2.375L107.469-20.4375C106.594-22.4792 105.74-24.2917 104.906-25.875 104.073-27.4583 103.146-28.7812 102.125-29.8437 101.104-30.9062 99.9271-31.7083 98.5937-32.25 97.2604-32.7917 95.7187-33.0625 93.9687-33.0625L88.8437-33.0625 88.8437-2.25C88.8437-1.83333 88.7083-1.45833 88.4375-1.125 88.1667-0.791667 87.7187-0.520833 87.0937-0.3125 86.4687-0.104167 85.6354 0.0625 84.5937 0.1875 83.5521 0.3125 82.2187 0.375 80.5937 0.375 79.0104 0.375 77.6875 0.3125 76.625 0.1875 75.5625 0.0625 74.7187-0.104167 74.0937-0.3125 73.4687-0.520833 73.0312-0.791667 72.7812-1.125 72.5312-1.45833 72.4062-1.83333 72.4062-2.25L72.4062-75.6875C72.4062-77.5208 72.875-78.8437 73.8125-79.6562 74.75-80.4687 75.9062-80.875 77.2812-80.875L98.2187-80.875C100.344-80.875 102.094-80.8333 103.469-80.75 104.844-80.6667 106.094-80.5625 107.219-80.4375 110.469-79.9792 113.396-79.1875 116-78.0625 118.604-76.9375 120.812-75.4687 122.625-73.6562 124.437-71.8437 125.823-69.6979 126.781-67.2187 127.74-64.7396 128.219-61.8958 128.219-58.6875 128.219-55.9792 127.875-53.5104 127.187-51.2812 126.5-49.0521 125.49-47.0625 124.156-45.3125 122.823-43.5625 121.177-42.0417 119.219-40.75 117.26-39.4583 115.031-38.4167 112.531-37.625 113.74-37.0417 114.875-36.3333 115.937-35.5 117-34.6667 118-33.6562 118.937-32.4687 119.875-31.2812 120.76-29.9271 121.594-28.4062 122.427-26.8854 123.24-25.1667 124.031-23.25L130.844-7.3125C131.469-5.72917 131.885-4.57292 132.094-3.84375 132.302-3.11458 132.406-2.54167 132.406-2.125ZM111.219-57C111.219-59.6667 110.615-61.9167 109.406-63.75 108.198-65.5833 106.219-66.875 103.469-67.625 102.635-67.8333 101.687-68 100.625-68.125 99.5625-68.25 98.0937-68.3125 96.2187-68.3125L88.8437-68.3125 88.8437-45.375 97.2187-45.375C99.5521-45.375 101.594-45.6562 103.344-46.2187 105.094-46.7812 106.552-47.5729 107.719-48.5937 108.885-49.6146 109.76-50.8333 110.344-52.25 110.927-53.6667 111.219-55.25 111.219-57ZM210.844-6.125C211.344-4.625 211.656-3.4375 211.781-2.5625 211.906-1.6875 211.74-1.03125 211.281-0.59375 210.823-0.15625 210.01 0.114583 208.844 0.21875 207.677 0.322917 206.073 0.375 204.031 0.375 201.906 0.375 200.25 0.34375 199.062 0.28125 197.875 0.21875 196.969 0.09375 196.344-0.09375 195.719-0.28125 195.281-0.541667 195.031-0.875 194.781-1.20833 194.573-1.64583 194.406-2.1875L188.969-18.4375 158.594-18.4375 153.469-2.625C153.302-2.04167 153.083-1.55208 152.812-1.15625 152.542-0.760417 152.104-0.447917 151.5-0.21875 150.896 0.0104167 150.042 0.166667 148.937 0.25 147.833 0.333333 146.385 0.375 144.594 0.375 142.677 0.375 141.177 0.3125 140.094 0.1875 139.01 0.0625 138.26-0.239583 137.844-0.71875 137.427-1.19792 137.281-1.875 137.406-2.75 137.531-3.625 137.844-4.79167 138.344-6.25L163.281-78C163.531-78.7083 163.823-79.2812 164.156-79.7187 164.49-80.1562 165.021-80.4896 165.75-80.7187 166.479-80.9479 167.49-81.0937 168.781-81.1562 170.073-81.2187 171.781-81.25 173.906-81.25 176.365-81.25 178.323-81.2187 179.781-81.1562 181.24-81.0937 182.375-80.9479 183.187-80.7187 184-80.4896 184.583-80.1458 184.937-79.6875 185.292-79.2292 185.594-78.6042 185.844-77.8125ZM173.719-65.4375 173.656-65.4375 162.219-31.0625 185.156-31.0625ZM267.885-74.125C267.885-72.875 267.833-71.8229 267.729-70.9687 267.625-70.1146 267.458-69.4375 267.229-68.9375 267-68.4375 266.74-68.0625 266.448-67.8125 266.156-67.5625 265.823-67.4375 265.448-67.4375L239.01-67.4375 239.01-45.6875 263.823-45.6875C264.198-45.6875 264.531-45.5833 264.823-45.375 265.115-45.1667 265.375-44.8125 265.604-44.3125 265.833-43.8125 266-43.1458 266.104-42.3125 266.208-41.4792 266.26-40.4375 266.26-39.1875 266.26-37.9375 266.208-36.8958 266.104-36.0625 266-35.2292 265.833-34.5417 265.604-34 265.375-33.4583 265.115-33.0729 264.823-32.8437 264.531-32.6146 264.198-32.5 263.823-32.5L239.01-32.5 239.01-2.375C239.01-1.91667 238.885-1.52083 238.635-1.1875 238.385-0.854167 237.937-0.572917 237.292-0.34375 236.646-0.114583 235.802 0.0625 234.76 0.1875 233.719 0.3125 232.385 0.375 230.76 0.375 229.177 0.375 227.854 0.3125 226.792 0.1875 225.729 0.0625 224.885-0.114583 224.26-0.34375 223.635-0.572917 223.187-0.854167 222.917-1.1875 222.646-1.52083 222.51-1.91667 222.51-2.375L222.51-75.6875C222.51-77.5208 222.979-78.8437 223.917-79.6562 224.854-80.4687 226.01-80.875 227.385-80.875L265.448-80.875C265.823-80.875 266.156-80.7604 266.448-80.5312 266.74-80.3021 267-79.9271 267.229-79.4062 267.458-78.8854 267.625-78.1875 267.729-77.3125 267.833-76.4375 267.885-75.375 267.885-74.125ZM326.896-74.125C326.896-72.875 326.844-71.8229 326.74-70.9687 326.635-70.1146 326.469-69.4375 326.24-68.9375 326.01-68.4375 325.75-68.0625 325.458-67.8125 325.167-67.5625 324.833-67.4375 324.458-67.4375L298.021-67.4375 298.021-45.6875 322.833-45.6875C323.208-45.6875 323.542-45.5833 323.833-45.375 324.125-45.1667 324.385-44.8125 324.615-44.3125 324.844-43.8125 325.01-43.1458 325.115-42.3125 325.219-41.4792 325.271-40.4375 325.271-39.1875 325.271-37.9375 325.219-36.8958 325.115-36.0625 325.01-35.2292 324.844-34.5417 324.615-34 324.385-33.4583 324.125-33.0729 323.833-32.8437 323.542-32.6146 323.208-32.5 322.833-32.5L298.021-32.5 298.021-2.375C298.021-1.91667 297.896-1.52083 297.646-1.1875 297.396-0.854167 296.948-0.572917 296.302-0.34375 295.656-0.114583 294.812 0.0625 293.771 0.1875 292.729 0.3125 291.396 0.375 289.771 0.375 288.187 0.375 286.865 0.3125 285.802 0.1875 284.74 0.0625 283.896-0.114583 283.271-0.34375 282.646-0.572917 282.198-0.854167 281.927-1.1875 281.656-1.52083 281.521-1.91667 281.521-2.375L281.521-75.6875C281.521-77.5208 281.99-78.8437 282.927-79.6562 283.865-80.4687 285.021-80.875 286.396-80.875L324.458-80.875C324.833-80.875 325.167-80.7604 325.458-80.5312 325.75-80.3021 326.01-79.9271 326.24-79.4062 326.469-78.8854 326.635-78.1875 326.74-77.3125 326.844-76.4375 326.896-75.375 326.896-74.125ZM357.031-2.25C357.031-1.83333 356.896-1.45833 356.625-1.125 356.354-0.791667 355.906-0.520833 355.281-0.3125 354.656-0.104167 353.823 0.0625 352.781 0.1875 351.74 0.3125 350.406 0.375 348.781 0.375 347.198 0.375 345.875 0.3125 344.812 0.1875 343.75 0.0625 342.906-0.104167 342.281-0.3125 341.656-0.520833 341.208-0.791667 340.937-1.125 340.667-1.45833 340.531-1.83333 340.531-2.25L340.531-78.625C340.531-79.0417 340.667-79.4167 340.937-79.75 341.208-80.0833 341.667-80.3542 342.312-80.5625 342.958-80.7708 343.802-80.9375 344.844-81.0625 345.885-81.1875 347.198-81.25 348.781-81.25 350.406-81.25 351.74-81.1875 352.781-81.0625 353.823-80.9375 354.656-80.7708 355.281-80.5625 355.906-80.3542 356.354-80.0833 356.625-79.75 356.896-79.4167 357.031-79.0417 357.031-78.625ZM430.844-12.25C430.844-11.2083 430.812-10.3229 430.75-9.59375 430.687-8.86458 430.594-8.23958 430.469-7.71875 430.344-7.19792 430.177-6.75 429.969-6.375 429.76-6 429.427-5.57292 428.969-5.09375 428.51-4.61458 427.625-4 426.312-3.25 425-2.5 423.396-1.78125 421.5-1.09375 419.604-0.40625 417.437 0.166667 415 0.625 412.562 1.08333 409.927 1.3125 407.094 1.3125 401.552 1.3125 396.552 0.458333 392.094-1.25 387.635-2.95833 383.844-5.51042 380.719-8.90625 377.594-12.3021 375.198-16.5417 373.531-21.625 371.865-26.7083 371.031-32.625 371.031-39.375 371.031-46.25 371.948-52.3542 373.781-57.6875 375.615-63.0208 378.177-67.5 381.469-71.125 384.76-74.75 388.708-77.5 393.312-79.375 397.917-81.25 402.99-82.1875 408.531-82.1875 410.781-82.1875 412.948-82 415.031-81.625 417.115-81.25 419.042-80.7604 420.812-80.1562 422.583-79.5521 424.177-78.8542 425.594-78.0625 427.01-77.2708 428-76.5937 428.562-76.0312 429.125-75.4687 429.51-75 429.719-74.625 429.927-74.25 430.094-73.7708 430.219-73.1875 430.344-72.6042 430.437-71.9167 430.5-71.125 430.562-70.3333 430.594-69.3542 430.594-68.1875 430.594-66.9375 430.552-65.875 430.469-65 430.385-64.125 430.24-63.4167 430.031-62.875 429.823-62.3333 429.573-61.9375 429.281-61.6875 428.99-61.4375 428.656-61.3125 428.281-61.3125 427.656-61.3125 426.865-61.6771 425.906-62.4062 424.948-63.1354 423.708-63.9479 422.187-64.8437 420.667-65.7396 418.854-66.5521 416.75-67.2812 414.646-68.0104 412.135-68.375 409.219-68.375 406.01-68.375 403.146-67.7187 400.625-66.4062 398.104-65.0937 395.958-63.2187 394.187-60.7812 392.417-58.3437 391.073-55.3958 390.156-51.9375 389.24-48.4792 388.781-44.5833 388.781-40.25 388.781-35.5 389.271-31.3854 390.25-27.9062 391.229-24.4271 392.625-21.5625 394.437-19.3125 396.25-17.0625 398.437-15.3854 401-14.2812 403.562-13.1771 406.448-12.625 409.656-12.625 412.573-12.625 415.094-12.9687 417.219-13.6562 419.344-14.3437 421.167-15.1042 422.687-15.9375 424.208-16.7708 425.458-17.5208 426.437-18.1875 427.417-18.8542 428.177-19.1875 428.719-19.1875 429.135-19.1875 429.469-19.1042 429.719-18.9375 429.969-18.7708 430.177-18.4375 430.344-17.9375 430.51-17.4375 430.635-16.7396 430.719-15.8437 430.802-14.9479 430.844-13.75 430.844-12.25Z" transform="matrix(0.5 0 0 0.501449 57.4504 98)"/></g></g><path d="M689 901C689 811.53 761.53 739 851 739L1873 739C1962.47 739 2035 811.53 2035 901L2035 901C2035 990.47 1962.47 1063 1873 1063L851 1063C761.53 1063 689 990.47 689 901Z" fill="#F0EEEF" fill-rule="evenodd"/><text font-family="Calibri,Calibri_MSFontService,sans-serif" font-weight="700" font-size="128" transform="matrix(1 0 0 1 1232.7 944)">TRAFFIC</text></g></svg>