<svg width="1231" height="349" xmlns="http://www.w3.org/2000/svg" xmlns:xlink="http://www.w3.org/1999/xlink" xml:space="preserve" overflow="hidden"><defs><clipPath id="clip0"><rect x="1122" y="1238" width="1231" height="349"/></clipPath></defs><g clip-path="url(#clip0)" transform="translate(-1122 -1238)"><rect x="1122" y="1238" width="1231" height="301" fill="#FFFFFF"/><text font-family="Calibri,Calibri_MSFontService,sans-serif" font-weight="700" font-size="165" transform="matrix(1 0 0 1 1652.95 1443)">USERS</text><g><g><g><path d="M32.3366 99.0243 32.3366 71.7468C32.3366 59.7253 42.0834 49.9785 54.105 49.9785L70.3478 49.9785C82.3694 49.9785 92.1162 59.7253 92.1162 71.7468L92.1162 99.0243" fill="#BDF693" transform="matrix(1 0 0 1.00405 1253.36 1265.36)"/><path d="M62.225 49.9785 62.225 49.9785C53.0747 49.9785 45.6568 42.5606 45.6568 33.4103L45.6568 23.3625C45.6568 14.2122 53.0747 6.7943 62.225 6.7943L62.225 6.7943C71.3754 6.7943 78.7933 14.2122 78.7933 23.3625L78.7933 33.4103C78.796 42.5606 71.3781 49.9785 62.225 49.9785Z" fill="#FEE5C6" transform="matrix(1 0 0 1.00405 1253.36 1265.36)"/><path d="M92.1162 99.0243 92.1162 71.7468C92.1162 59.7253 101.863 49.9785 113.884 49.9785L130.127 49.9785C142.149 49.9785 151.896 59.7253 151.896 71.7468L151.896 99.0243" fill="#FFE773" transform="matrix(1 0 0 1.00405 1253.36 1265.36)"/><path d="M122.005 49.9785 122.005 49.9785C112.854 49.9785 105.436 42.5606 105.436 33.4103L105.436 23.3625C105.436 14.2122 112.854 6.7943 122.005 6.7943L122.005 6.7943C131.155 6.7943 138.573 14.2122 138.573 23.3625L138.573 33.4103C138.573 42.5606 131.155 49.9785 122.005 49.9785Z" fill="#FEE5C6" transform="matrix(1 0 0 1.00405 1253.36 1265.36)"/><path d="M151.893 99.0243 151.893 71.7468C151.893 59.7253 161.64 49.9785 173.661 49.9785L189.904 49.9785C201.926 49.9785 211.673 59.7253 211.673 71.7468L211.673 99.0243" fill="#FE4F60" transform="matrix(1 0 0 1.00405 1253.36 1265.36)"/><path d="M181.784 49.9785 181.784 49.9785C172.634 49.9785 165.216 42.5606 165.216 33.4103L165.216 23.3625C165.216 14.2122 172.634 6.7943 181.784 6.7943L181.784 6.7943C190.934 6.7943 198.352 14.2122 198.352 23.3625L198.352 33.4103C198.352 42.5606 190.934 49.9785 181.784 49.9785Z" fill="#FEE5C6" transform="matrix(1 0 0 1.00405 1253.36 1265.36)"/><path d="M62.225 168.776 62.225 141.498C62.225 129.477 71.9718 119.73 83.9934 119.73L100.236 119.73C112.258 119.73 122.005 129.477 122.005 141.498L122.005 168.776" fill="#C2ADFF" transform="matrix(1 0 0 1.00405 1253.36 1265.36)"/><path d="M2.66241 169.041 2.66241 141.767C2.66241 129.745 12.4092 119.998 24.4307 119.998L40.6736 119.998C52.6951 119.998 62.4419 129.745 62.4419 141.767L62.4419 169.044" fill="#FFE773" transform="matrix(1 0 0 1.00405 1253.36 1265.36)"/><path d="M122.005 168.776 122.005 141.498C122.005 129.477 131.751 119.73 143.773 119.73L160.016 119.73C172.037 119.73 181.784 129.477 181.784 141.498L181.784 168.776" fill="#80AAFF" transform="matrix(1 0 0 1.00405 1253.36 1265.36)"/><path d="M32.3366 237.218 32.3366 209.94C32.3366 197.919 42.0834 188.172 54.105 188.172L70.3478 188.172C82.3694 188.172 92.1162 197.919 92.1162 209.94L92.1162 237.218" fill="#80AAFF" transform="matrix(1 0 0 1.00405 1253.36 1265.36)"/><path d="M62.225 188.172 62.225 188.172C53.0747 188.172 45.6568 180.754 45.6568 171.603L45.6568 161.556C45.6568 152.405 53.0747 144.988 62.225 144.988L62.225 144.988C71.3754 144.988 78.7933 152.405 78.7933 161.556L78.7933 171.603C78.796 180.754 71.3781 188.172 62.225 188.172Z" fill="#FEE5C6" transform="matrix(1 0 0 1.00405 1253.36 1265.36)"/><path d="M181.784 169.041 181.784 141.767C181.784 129.745 191.531 119.998 203.552 119.998L219.795 119.998C231.817 119.998 241.564 129.745 241.564 141.767L241.564 169.044" fill="#BDF693" transform="matrix(1 0 0 1.00405 1253.36 1265.36)"/><path d="M92.1162 237.218 92.1162 209.94C92.1162 197.919 101.863 188.172 113.884 188.172L130.127 188.172C142.149 188.172 151.896 197.919 151.896 209.94L151.896 237.218" fill="#FE4F60" transform="matrix(1 0 0 1.00405 1253.36 1265.36)"/><path d="M122.005 188.172 122.005 188.172C112.854 188.172 105.436 180.754 105.436 171.603L105.436 161.556C105.436 152.405 112.854 144.988 122.005 144.988L122.005 144.988C131.155 144.988 138.573 152.405 138.573 161.556L138.573 171.603C138.573 180.754 131.155 188.172 122.005 188.172Z" fill="#FEE5C6" transform="matrix(1 0 0 1.00405 1253.36 1265.36)"/><path d="M151.893 237.218 151.893 209.94C151.893 197.919 161.64 188.172 173.661 188.172L189.904 188.172C201.926 188.172 211.673 197.919 211.673 209.94L211.673 237.218" fill="#FFE773" transform="matrix(1 0 0 1.00405 1253.36 1265.36)"/><path d="M181.784 188.172 181.784 188.172C172.634 188.172 165.216 180.754 165.216 171.603L165.216 161.556C165.216 152.405 172.634 144.988 181.784 144.988L181.784 144.988C190.934 144.988 198.352 152.405 198.352 161.556L198.352 171.603C198.352 180.754 190.934 188.172 181.784 188.172Z" fill="#FEE5C6" transform="matrix(1 0 0 1.00405 1253.36 1265.36)"/><path d="M92.1162 119.73 92.1162 119.73C82.9658 119.73 75.5479 112.312 75.5479 103.162L75.5479 93.1139C75.5479 83.9635 82.9658 76.5457 92.1162 76.5457L92.1162 76.5457C101.267 76.5457 108.684 83.9635 108.684 93.1139L108.684 103.162C108.684 112.312 101.267 119.73 92.1162 119.73Z" fill="#FEE5C6" transform="matrix(1 0 0 1.00405 1253.36 1265.36)"/><path d="M151.893 119.73 151.893 119.73C142.743 119.73 135.325 112.312 135.325 103.162L135.325 93.1139C135.325 83.9635 142.743 76.5457 151.893 76.5457L151.893 76.5457C161.043 76.5457 168.461 83.9635 168.461 93.1139L168.461 103.162C168.464 112.312 161.046 119.73 151.893 119.73Z" fill="#FEE5C6" transform="matrix(1 0 0 1.00405 1253.36 1265.36)"/><path d="M211.673 119.998 211.673 119.998C202.522 119.998 195.104 112.58 195.104 103.43L195.104 93.3823C195.104 84.232 202.522 76.8141 211.673 76.8141L211.673 76.8141C220.823 76.8141 228.241 84.232 228.241 93.3823L228.241 103.43C228.241 112.58 220.823 119.998 211.673 119.998Z" fill="#FEE5C6" transform="matrix(1 0 0 1.00405 1253.36 1265.36)"/><path d="M32.5508 119.998 32.5508 119.998C23.4005 119.998 15.9826 112.58 15.9826 103.43L15.9826 93.3823C15.9826 84.232 23.4005 76.8141 32.5508 76.8141L32.5508 76.8141C41.7012 76.8141 49.119 84.232 49.119 93.3823L49.119 103.43C49.119 112.58 41.7012 119.998 32.5508 119.998Z" fill="#FEE5C6" transform="matrix(1 0 0 1.00405 1253.36 1265.36)"/><path d="M92.23 239.929C90.7334 239.929 89.5188 238.717 89.5188 237.218L89.5188 209.983C89.5188 199.496 80.9866 190.964 70.497 190.964L54.2812 190.964C43.7942 190.964 35.262 199.494 35.262 209.983L35.262 237.218C35.262 238.717 34.0474 239.929 32.5508 239.929 31.0542 239.929 29.8396 238.717 29.8396 237.218L29.8396 209.983C29.8396 196.506 40.8037 185.542 54.2812 185.542L70.497 185.542C83.9744 185.542 94.9412 196.506 94.9412 209.983L94.9412 237.218C94.9412 238.717 93.7266 239.929 92.23 239.929Z" transform="matrix(1 0 0 1.00405 1253.36 1265.36)"/><path d="M62.3904 190.967C51.7733 190.967 43.1381 182.329 43.1381 171.712L43.1381 161.68C43.1381 151.066 51.776 142.428 62.3904 142.428 73.0075 142.428 81.6455 151.066 81.6455 161.68L81.6455 171.712C81.6427 182.329 73.0075 190.967 62.3904 190.967ZM62.3904 147.851C54.7638 147.851 48.5605 154.054 48.5605 161.68L48.5605 171.712C48.5605 179.339 54.7665 185.545 62.3904 185.545 70.0171 185.545 76.223 179.341 76.223 171.712L76.223 161.68C76.2203 154.054 70.0171 147.851 62.3904 147.851Z" transform="matrix(1 0 0 1.00405 1253.36 1265.36)"/><path d="M151.909 239.929C150.41 239.929 149.198 238.717 149.198 237.218L149.198 209.983C149.198 199.496 140.666 190.964 130.176 190.964L113.96 190.964C103.473 190.964 94.9412 199.494 94.9412 209.983L94.9412 237.218C94.9412 238.717 93.7266 239.929 92.23 239.929 90.7334 239.929 89.5188 238.717 89.5188 237.218L89.5188 209.983C89.5188 196.506 100.483 185.542 113.96 185.542L130.176 185.542C143.656 185.542 154.62 196.506 154.62 209.983L154.62 237.218C154.62 238.717 153.409 239.929 151.909 239.929Z" transform="matrix(1 0 0 1.00405 1253.36 1265.36)"/><path d="M122.07 190.967C111.453 190.967 102.817 182.329 102.817 171.712L102.817 161.68C102.817 151.066 111.455 142.428 122.07 142.428 132.684 142.428 141.322 151.066 141.322 161.68L141.322 171.712C141.322 182.329 132.684 190.967 122.07 190.967ZM122.07 147.851C114.443 147.851 108.24 154.054 108.24 161.68L108.24 171.712C108.24 179.339 114.446 185.545 122.07 185.545 129.696 185.545 135.9 179.341 135.9 171.712L135.9 161.68C135.9 154.054 129.696 147.851 122.07 147.851Z" transform="matrix(1 0 0 1.00405 1253.36 1265.36)"/><path d="M211.588 239.929C210.089 239.929 208.877 238.717 208.877 237.218L208.877 209.983C208.877 199.496 200.345 190.964 189.855 190.964L173.64 190.964C163.153 190.964 154.62 199.494 154.62 209.983L154.62 237.218C154.62 238.717 153.409 239.929 151.909 239.929 150.41 239.929 149.198 238.717 149.198 237.218L149.198 209.983C149.198 196.506 160.162 185.542 173.64 185.542L189.855 185.542C203.336 185.542 214.3 196.506 214.3 209.983L214.3 237.218C214.3 238.717 213.088 239.929 211.588 239.929Z" transform="matrix(1 0 0 1.00405 1253.36 1265.36)"/><path d="M181.749 190.967C171.132 190.967 162.494 182.329 162.494 171.712L162.494 161.68C162.494 151.066 171.132 142.428 181.749 142.428 192.363 142.428 201.001 151.066 201.001 161.68L201.001 171.712C201.001 182.329 192.363 190.967 181.749 190.967ZM181.749 147.851C174.122 147.851 167.916 154.054 167.916 161.68L167.916 171.712C167.916 179.339 174.119 185.545 181.749 185.545 189.375 185.545 195.579 179.341 195.579 171.712L195.579 161.68C195.579 154.054 189.375 147.851 181.749 147.851Z" transform="matrix(1 0 0 1.00405 1253.36 1265.36)"/><path d="M62.3904 147.851C60.8938 147.851 59.6792 146.639 59.6792 145.139L59.6792 141.658C59.6792 128.178 70.6434 117.214 84.1235 117.214L100.339 117.214C113.817 117.214 124.784 128.178 124.784 141.658 124.784 143.157 123.569 144.369 122.072 144.369 120.576 144.369 119.361 143.157 119.361 141.658 119.361 131.171 110.829 122.636 100.342 122.636L84.1262 122.636C73.6365 122.636 65.1043 131.168 65.1043 141.658L65.1043 145.139C65.1016 146.639 63.887 147.851 62.3904 147.851Z" transform="matrix(1 0 0 1.00405 1253.36 1265.36)"/><path d="M181.749 147.851C180.25 147.851 179.038 146.639 179.038 145.139L179.038 141.658C179.038 131.171 170.505 122.636 160.016 122.636L143.8 122.636C133.313 122.636 124.778 131.168 124.778 141.658L124.778 145.139C124.778 146.639 123.566 147.851 122.067 147.851 120.568 147.851 119.356 146.639 119.356 145.139L119.356 141.658C119.356 128.178 130.32 117.214 143.797 117.214L160.013 117.214C173.493 117.214 184.457 128.178 184.457 141.658L184.457 145.139C184.46 146.639 183.248 147.851 181.749 147.851Z" transform="matrix(1 0 0 1.00405 1253.36 1265.36)"/><path d="M92.23 122.636C81.6129 122.636 72.9777 113.998 72.9777 103.384L72.9777 93.3525C72.9777 82.7354 81.6156 74.1002 92.23 74.1002 102.844 74.1002 111.482 82.7381 111.482 93.3525L111.482 103.384C111.482 114.001 102.847 122.636 92.23 122.636ZM92.23 79.5226C84.6034 79.5226 78.4001 85.7285 78.4001 93.3525L78.4001 103.384C78.4001 111.011 84.6061 117.214 92.23 117.214 99.854 117.214 106.06 111.008 106.06 103.384L106.06 93.3525C106.06 85.7285 99.8567 79.5226 92.23 79.5226Z" transform="matrix(1 0 0 1.00405 1253.36 1265.36)"/><path d="M151.909 122.636C141.292 122.636 132.654 113.998 132.654 103.384L132.654 93.3525C132.654 82.7354 141.292 74.1002 151.909 74.1002 162.524 74.1002 171.162 82.7381 171.162 93.3525L171.162 103.384C171.162 114.001 162.524 122.636 151.909 122.636ZM151.909 79.5226C144.283 79.5226 138.077 85.7285 138.077 93.3525L138.077 103.384C138.077 111.011 144.28 117.214 151.909 117.214 159.536 117.214 165.739 111.008 165.739 103.384L165.739 93.3525C165.739 85.7285 159.536 79.5226 151.909 79.5226Z" transform="matrix(1 0 0 1.00405 1253.36 1265.36)"/><path d="M32.5508 79.5226C31.0542 79.5226 29.8396 78.308 29.8396 76.8114L29.8396 71.6384C29.8396 58.1609 40.8037 47.1968 54.2812 47.1968L70.497 47.1968C83.9744 47.1968 94.9412 58.1609 94.9412 71.6384 94.9412 73.135 93.7266 74.3496 92.23 74.3496 90.7334 74.3496 89.5188 73.135 89.5188 71.6384 89.5188 61.1514 80.9866 52.6192 70.497 52.6192L54.2812 52.6192C43.7942 52.6192 35.262 61.1514 35.262 71.6384L35.262 76.8114C35.262 78.308 34.0474 79.5226 32.5508 79.5226Z" transform="matrix(1 0 0 1.00405 1253.36 1265.36)"/><path d="M62.3904 52.6192C51.7733 52.6192 43.1381 43.9813 43.1381 33.3669L43.1381 23.3354C43.1381 12.7183 51.776 4.08309 62.3904 4.08309 73.0075 4.08309 81.6455 12.721 81.6455 23.3354L81.6455 33.3669C81.6427 43.9813 73.0075 52.6192 62.3904 52.6192ZM62.3904 9.5028C54.7638 9.5028 48.5605 15.7088 48.5605 23.3327L48.5605 33.3642C48.5605 40.9908 54.7665 47.1941 62.3904 47.1941 70.0171 47.1941 76.223 40.9881 76.223 33.3642L76.223 23.3327C76.2203 15.7088 70.0171 9.5028 62.3904 9.5028Z" transform="matrix(1 0 0 1.00405 1253.36 1265.36)"/><path d="M92.23 79.5226C90.7334 79.5226 89.5188 78.308 89.5188 76.8114L89.5188 71.6384C89.5188 58.1609 100.483 47.1968 113.96 47.1968L130.176 47.1968C143.656 47.1968 154.62 58.1609 154.62 71.6384 154.62 73.135 153.409 74.3496 151.909 74.3496 150.41 74.3496 149.198 73.135 149.198 71.6384 149.198 61.1514 140.666 52.6192 130.176 52.6192L113.96 52.6192C103.473 52.6192 94.9412 61.1514 94.9412 71.6384L94.9412 76.8114C94.9412 78.308 93.7266 79.5226 92.23 79.5226Z" transform="matrix(1 0 0 1.00405 1253.36 1265.36)"/><path d="M122.07 52.6192C111.453 52.6192 102.817 43.9813 102.817 33.3669L102.817 23.3354C102.817 12.7183 111.455 4.08309 122.07 4.08309 132.684 4.08309 141.322 12.721 141.322 23.3354L141.322 33.3669C141.322 43.9813 132.684 52.6192 122.07 52.6192ZM122.07 9.5028C114.443 9.5028 108.24 15.7088 108.24 23.3327L108.24 33.3642C108.24 40.9908 114.446 47.1941 122.07 47.1941 129.696 47.1941 135.9 40.9881 135.9 33.3642L135.9 23.3327C135.9 15.7088 129.696 9.5028 122.07 9.5028Z" transform="matrix(1 0 0 1.00405 1253.36 1265.36)"/><path d="M211.588 79.5226C210.089 79.5226 208.877 78.308 208.877 76.8114L208.877 71.6384C208.877 61.1514 200.345 52.6192 189.855 52.6192L173.64 52.6192C163.153 52.6192 154.62 61.1514 154.62 71.6384L154.62 76.8114C154.62 78.308 153.409 79.5226 151.909 79.5226 150.41 79.5226 149.198 78.308 149.198 76.8114L149.198 71.6384C149.198 58.1609 160.162 47.1968 173.64 47.1968L189.855 47.1968C203.336 47.1968 214.3 58.1609 214.3 71.6384L214.3 76.8114C214.3 78.308 213.088 79.5226 211.588 79.5226Z" transform="matrix(1 0 0 1.00405 1253.36 1265.36)"/><path d="M181.749 52.6192C171.132 52.6192 162.494 43.9813 162.494 33.3669L162.494 23.3354C162.494 12.7183 171.132 4.08309 181.749 4.08309 192.363 4.08309 201.001 12.721 201.001 23.3354L201.001 33.3669C201.001 43.9813 192.363 52.6192 181.749 52.6192ZM181.749 9.5028C174.122 9.5028 167.916 15.7088 167.916 23.3327L167.916 33.3642C167.916 40.9908 174.119 47.1941 181.749 47.1941 189.375 47.1941 195.579 40.9881 195.579 33.3642L195.579 23.3327C195.579 15.7088 189.375 9.5028 181.749 9.5028Z" transform="matrix(1 0 0 1.00405 1253.36 1265.36)"/><path d="M211.458 122.636C200.841 122.636 192.203 113.998 192.203 103.384L192.203 93.3525C192.203 82.7354 200.841 74.1002 211.458 74.1002 222.073 74.1002 230.711 82.7381 230.711 93.3525L230.711 103.384C230.711 114.001 222.073 122.636 211.458 122.636ZM211.458 79.5226C203.832 79.5226 197.626 85.7285 197.626 93.3525L197.626 103.384C197.626 111.011 203.829 117.214 211.458 117.214 219.085 117.214 225.288 111.008 225.288 103.384L225.288 93.3525C225.288 85.7285 219.085 79.5226 211.458 79.5226Z" transform="matrix(1 0 0 1.00405 1253.36 1265.36)"/><path d="M241.298 171.601C239.799 171.601 238.587 170.389 238.587 168.89L238.587 141.658C238.587 131.171 230.055 122.636 219.565 122.636L203.349 122.636C192.862 122.636 184.33 131.168 184.33 141.658L184.33 145.139C184.33 146.639 183.118 147.851 181.619 147.851 180.119 147.851 178.908 146.639 178.908 145.139L178.908 141.658C178.908 128.178 189.872 117.214 203.349 117.214L219.565 117.214C233.045 117.214 244.009 128.178 244.009 141.658L244.009 168.89C244.009 170.389 242.797 171.601 241.298 171.601Z" transform="matrix(1 0 0 1.00405 1253.36 1265.36)"/><path d="M32.5508 122.636C21.9337 122.636 13.2985 113.998 13.2985 103.384L13.2985 93.3525C13.2985 82.7354 21.9364 74.1002 32.5508 74.1002 43.1652 74.1002 51.8031 82.7381 51.8031 93.3525L51.8031 103.384C51.8031 114.001 43.1652 122.636 32.5508 122.636ZM32.5508 79.5226C24.9242 79.5226 18.7209 85.7285 18.7209 93.3525L18.7209 103.384C18.7209 111.011 24.9269 117.214 32.5508 117.214 40.1747 117.214 46.3807 111.008 46.3807 103.384L46.3807 93.3525C46.3807 85.7285 40.1747 79.5226 32.5508 79.5226Z" transform="matrix(1 0 0 1.00405 1253.36 1265.36)"/><path d="M2.71121 171.601C1.21462 171.601 0 170.389 0 168.89L0 141.658C0 128.178 10.9641 117.214 24.4416 117.214L40.6573 117.214C54.1348 117.214 65.0989 128.178 65.0989 141.658L65.0989 145.139C65.0989 146.639 63.8843 147.851 62.3877 147.851 60.8911 147.851 59.6765 146.639 59.6765 145.139L59.6765 141.658C59.6765 131.171 51.1443 122.636 40.6573 122.636L24.4416 122.636C13.9546 122.636 5.42243 131.171 5.42243 141.658L5.42243 168.89C5.42243 170.389 4.2078 171.601 2.71121 171.601Z" transform="matrix(1 0 0 1.00405 1253.36 1265.36)"/></g></g></g></g></svg>