<svg width="1452" height="430" xmlns="http://www.w3.org/2000/svg" xmlns:xlink="http://www.w3.org/1999/xlink" xml:space="preserve" overflow="hidden"><defs><filter id="fx0" x="-10%" y="-10%" width="120%" height="120%" filterUnits="userSpaceOnUse" primitiveUnits="userSpaceOnUse"><feComponentTransfer color-interpolation-filters="sRGB"><feFuncR type="discrete" tableValues="1 1"/><feFuncG type="discrete" tableValues="1 1"/><feFuncB type="discrete" tableValues="1 1"/><feFuncA type="linear" slope="0.8" intercept="0"/></feComponentTransfer><feGaussianBlur stdDeviation="6.11111 6.11111"/></filter><filter id="fx1" x="-10%" y="-10%" width="120%" height="120%" filterUnits="userSpaceOnUse" primitiveUnits="userSpaceOnUse"><feComponentTransfer color-interpolation-filters="sRGB"><feFuncR type="discrete" tableValues="0 0"/><feFuncG type="discrete" tableValues="0 0"/><feFuncB type="discrete" tableValues="0 0"/><feFuncA type="linear" slope="0.4" intercept="0"/></feComponentTransfer><feGaussianBlur stdDeviation="6.11111 6.11111"/></filter><filter id="fx2" x="-10%" y="-10%" width="120%" height="120%" filterUnits="userSpaceOnUse" primitiveUnits="userSpaceOnUse"><feComponentTransfer color-interpolation-filters="sRGB"><feFuncR type="discrete" tableValues="0 0"/><feFuncG type="discrete" tableValues="0 0"/><feFuncB type="discrete" tableValues="0 0"/><feFuncA type="linear" slope="0.4" intercept="0"/></feComponentTransfer><feGaussianBlur stdDeviation="6.11111 6.11111"/></filter><clipPath id="clip3"><rect x="618" y="285" width="1452" height="430"/></clipPath><clipPath id="clip4"><rect x="38.5" y="34.5" width="211" height="87"/></clipPath></defs><g clip-path="url(#clip3)" transform="translate(-618 -285)"><g filter="url(#fx0)" transform="matrix(2 0 0 2 617 284)"><g><path d="M18.8977 99.8977C18.8977 55.1626 55.1626 18.8977 99.8977 18.8977L610.898 18.8977C655.633 18.8977 691.898 55.1626 691.898 99.8977L691.898 99.8977C691.898 144.633 655.633 180.898 610.898 180.898L99.8977 180.898C55.1626 180.898 18.8977 144.633 18.8977 99.8977Z" fill="#F0EEEF" fill-rule="evenodd"/></g></g><path d="M671 500C671 410.53 743.53 338 833 338L1855 338C1944.47 338 2017 410.53 2017 500L2017 500C2017 589.47 1944.47 662 1855 662L833 662C743.53 662 671 589.47 671 500Z" fill="#F0EEEF" fill-rule="evenodd"/><g filter="url(#fx1)" transform="matrix(2 0 0 2 649 316)"><g><path d="M19.1023 100.102C19.1023 55.3672 55.3672 19.1022 100.102 19.1022L611.102 19.1022C655.837 19.1022 692.102 55.3672 692.102 100.102L692.102 100.102C692.102 144.837 655.837 181.102 611.102 181.102L100.102 181.102C55.3672 181.102 19.1023 144.837 19.1023 100.102Z" fill="#F0EEEF" fill-rule="evenodd"/></g></g><g clip-path="url(#clip4)" filter="url(#fx2)" transform="matrix(2 0 0 2 1164 363)"><g><path d="M74.8125-30.125C74.8125-25.1667 74.0833-20.7292 72.625-16.8125 71.1667-12.8958 69.0208-9.58333 66.1875-6.875 63.3542-4.16667 59.8542-2.10417 55.6875-0.6875 51.5208 0.729167 46.7292 1.4375 41.3125 1.4375 36.2292 1.4375 31.6667 0.802083 27.625-0.46875 23.5833-1.73958 20.1667-3.66667 17.375-6.25 14.5833-8.83333 12.4479-12.0521 10.9687-15.9062 9.48958-19.7604 8.75-24.2708 8.75-29.4375L8.75-78.625C8.75-79.0417 8.875-79.4167 9.125-79.75 9.375-80.0833 9.82292-80.3542 10.4687-80.5625 11.1146-80.7708 11.9583-80.9375 13-81.0625 14.0417-81.1875 15.375-81.25 17-81.25 18.5833-81.25 19.8958-81.1875 20.9375-81.0625 21.9792-80.9375 22.8125-80.7708 23.4375-80.5625 24.0625-80.3542 24.5104-80.0833 24.7812-79.75 25.0521-79.4167 25.1875-79.0417 25.1875-78.625L25.1875-30.875C25.1875-27.6667 25.5833-24.8854 26.375-22.5312 27.1667-20.1771 28.3021-18.2292 29.7812-16.6875 31.2604-15.1458 33.0312-13.9896 35.0937-13.2187 37.1562-12.4479 39.4583-12.0625 42-12.0625 44.5833-12.0625 46.8958-12.4583 48.9375-13.25 50.9792-14.0417 52.7083-15.1979 54.125-16.7187 55.5417-18.2396 56.6354-20.1146 57.4062-22.3437 58.1771-24.5729 58.5625-27.1042 58.5625-29.9375L58.5625-78.625C58.5625-79.0417 58.6875-79.4167 58.9375-79.75 59.1875-80.0833 59.625-80.3542 60.25-80.5625 60.875-80.7708 61.7187-80.9375 62.7812-81.0625 63.8437-81.1875 65.1667-81.25 66.75-81.25 68.3333-81.25 69.6354-81.1875 70.6562-81.0625 71.6771-80.9375 72.5-80.7708 73.125-80.5625 73.75-80.3542 74.1875-80.0833 74.4375-79.75 74.6875-79.4167 74.8125-79.0417 74.8125-78.625ZM140.396-24.25C140.396-20 139.604-16.2708 138.021-13.0625 136.438-9.85417 134.292-7.17708 131.583-5.03125 128.875-2.88542 125.708-1.27083 122.083-0.1875 118.458 0.895833 114.583 1.4375 110.458 1.4375 107.667 1.4375 105.073 1.20833 102.677 0.75 100.281 0.291667 98.1667-0.260417 96.3333-0.90625 94.5-1.55208 92.9687-2.22917 91.7396-2.9375 90.5104-3.64583 89.625-4.27083 89.0833-4.8125 88.5417-5.35417 88.1562-6.13542 87.9271-7.15625 87.6979-8.17708 87.5833-9.64583 87.5833-11.5625 87.5833-12.8542 87.625-13.9375 87.7083-14.8125 87.7917-15.6875 87.9271-16.3958 88.1146-16.9375 88.3021-17.4792 88.5521-17.8646 88.8646-18.0937 89.1771-18.3229 89.5417-18.4375 89.9583-18.4375 90.5417-18.4375 91.3646-18.0937 92.4271-17.4062 93.4896-16.7187 94.8542-15.9583 96.5208-15.125 98.1875-14.2917 100.177-13.5312 102.49-12.8437 104.802-12.1562 107.479-11.8125 110.521-11.8125 112.521-11.8125 114.312-12.0521 115.896-12.5312 117.479-13.0104 118.823-13.6875 119.927-14.5625 121.031-15.4375 121.875-16.5208 122.458-17.8125 123.042-19.1042 123.333-20.5417 123.333-22.125 123.333-23.9583 122.833-25.5312 121.833-26.8437 120.833-28.1562 119.531-29.3229 117.927-30.3437 116.323-31.3646 114.5-32.3229 112.458-33.2187 110.417-34.1146 108.312-35.0625 106.146-36.0625 103.979-37.0625 101.875-38.1979 99.8333-39.4687 97.7917-40.7396 95.9687-42.2604 94.3646-44.0312 92.7604-45.8021 91.4583-47.8958 90.4583-50.3125 89.4583-52.7292 88.9583-55.625 88.9583-59 88.9583-62.875 89.6771-66.2812 91.1146-69.2187 92.5521-72.1562 94.4896-74.5937 96.9271-76.5312 99.3646-78.4687 102.24-79.9167 105.552-80.875 108.865-81.8333 112.375-82.3125 116.083-82.3125 118-82.3125 119.917-82.1667 121.833-81.875 123.75-81.5833 125.542-81.1875 127.208-80.6875 128.875-80.1875 130.354-79.625 131.646-79 132.938-78.375 133.792-77.8542 134.208-77.4375 134.625-77.0208 134.906-76.6667 135.052-76.375 135.198-76.0833 135.323-75.6979 135.427-75.2187 135.531-74.7396 135.604-74.1354 135.646-73.4062 135.688-72.6771 135.708-71.7708 135.708-70.6875 135.708-69.4792 135.677-68.4583 135.615-67.625 135.552-66.7917 135.448-66.1042 135.302-65.5625 135.156-65.0208 134.948-64.625 134.677-64.375 134.406-64.125 134.042-64 133.583-64 133.125-64 132.396-64.2917 131.396-64.875 130.396-65.4583 129.167-66.0937 127.708-66.7812 126.25-67.4687 124.562-68.0937 122.646-68.6562 120.729-69.2187 118.625-69.5 116.333-69.5 114.542-69.5 112.979-69.2812 111.646-68.8437 110.312-68.4062 109.198-67.8021 108.302-67.0312 107.406-66.2604 106.74-65.3333 106.302-64.25 105.865-63.1667 105.646-62.0208 105.646-60.8125 105.646-59.0208 106.135-57.4687 107.115-56.1562 108.094-54.8437 109.406-53.6771 111.052-52.6562 112.698-51.6354 114.562-50.6771 116.646-49.7812 118.729-48.8854 120.854-47.9375 123.021-46.9375 125.187-45.9375 127.312-44.8021 129.396-43.5312 131.479-42.2604 133.333-40.7396 134.958-38.9687 136.583-37.1979 137.896-35.1146 138.896-32.7187 139.896-30.3229 140.396-27.5 140.396-24.25ZM201.125-6.4375C201.125-5.22917 201.073-4.21875 200.969-3.40625 200.865-2.59375 200.708-1.9375 200.5-1.4375 200.292-0.9375 200.031-0.572917 199.719-0.34375 199.406-0.114583 199.062 0 198.688 0L158.062 0C156.688 0 155.531-0.40625 154.594-1.21875 153.656-2.03125 153.188-3.35417 153.188-5.1875L153.188-75.6875C153.188-77.5208 153.656-78.8437 154.594-79.6562 155.531-80.4687 156.688-80.875 158.062-80.875L198.438-80.875C198.812-80.875 199.146-80.7708 199.438-80.5625 199.729-80.3542 199.979-79.9896 200.188-79.4687 200.396-78.9479 200.552-78.2812 200.656-77.4687 200.76-76.6562 200.812-75.625 200.812-74.375 200.812-73.2083 200.76-72.2187 200.656-71.4062 200.552-70.5937 200.396-69.9375 200.188-69.4375 199.979-68.9375 199.729-68.5729 199.438-68.3437 199.146-68.1146 198.812-68 198.438-68L169.562-68 169.562-48.25 194-48.25C194.375-48.25 194.719-48.1354 195.031-47.9062 195.344-47.6771 195.604-47.3229 195.812-46.8437 196.021-46.3646 196.177-45.7187 196.281-44.9062 196.385-44.0937 196.438-43.1042 196.438-41.9375 196.438-40.7292 196.385-39.7292 196.281-38.9375 196.177-38.1458 196.021-37.5104 195.812-37.0312 195.604-36.5521 195.344-36.2083 195.031-36 194.719-35.7917 194.375-35.6875 194-35.6875L169.562-35.6875 169.562-12.875 198.688-12.875C199.062-12.875 199.406-12.7604 199.719-12.5312 200.031-12.3021 200.292-11.9375 200.5-11.4375 200.708-10.9375 200.865-10.2812 200.969-9.46875 201.073-8.65625 201.125-7.64583 201.125-6.4375ZM275.635-2.125C275.635-1.66667 275.552-1.28125 275.385-0.96875 275.219-0.65625 274.823-0.395833 274.198-0.1875 273.573 0.0208333 272.656 0.166667 271.448 0.25 270.24 0.333333 268.594 0.375 266.51 0.375 264.76 0.375 263.365 0.333333 262.323 0.25 261.281 0.166667 260.458 0.0104167 259.854-0.21875 259.25-0.447917 258.823-0.739583 258.573-1.09375 258.323-1.44792 258.115-1.875 257.948-2.375L250.698-20.4375C249.823-22.4792 248.969-24.2917 248.135-25.875 247.302-27.4583 246.375-28.7812 245.354-29.8437 244.333-30.9062 243.156-31.7083 241.823-32.25 240.49-32.7917 238.948-33.0625 237.198-33.0625L232.073-33.0625 232.073-2.25C232.073-1.83333 231.937-1.45833 231.667-1.125 231.396-0.791667 230.948-0.520833 230.323-0.3125 229.698-0.104167 228.865 0.0625 227.823 0.1875 226.781 0.3125 225.448 0.375 223.823 0.375 222.24 0.375 220.917 0.3125 219.854 0.1875 218.792 0.0625 217.948-0.104167 217.323-0.3125 216.698-0.520833 216.26-0.791667 216.01-1.125 215.76-1.45833 215.635-1.83333 215.635-2.25L215.635-75.6875C215.635-77.5208 216.104-78.8437 217.042-79.6562 217.979-80.4687 219.135-80.875 220.51-80.875L241.448-80.875C243.573-80.875 245.323-80.8333 246.698-80.75 248.073-80.6667 249.323-80.5625 250.448-80.4375 253.698-79.9792 256.625-79.1875 259.229-78.0625 261.833-76.9375 264.042-75.4687 265.854-73.6562 267.667-71.8437 269.052-69.6979 270.01-67.2187 270.969-64.7396 271.448-61.8958 271.448-58.6875 271.448-55.9792 271.104-53.5104 270.417-51.2812 269.729-49.0521 268.719-47.0625 267.385-45.3125 266.052-43.5625 264.406-42.0417 262.448-40.75 260.49-39.4583 258.26-38.4167 255.76-37.625 256.969-37.0417 258.104-36.3333 259.167-35.5 260.229-34.6667 261.229-33.6562 262.167-32.4687 263.104-31.2812 263.99-29.9271 264.823-28.4062 265.656-26.8854 266.469-25.1667 267.26-23.25L274.073-7.3125C274.698-5.72917 275.115-4.57292 275.323-3.84375 275.531-3.11458 275.635-2.54167 275.635-2.125ZM254.448-57C254.448-59.6667 253.844-61.9167 252.635-63.75 251.427-65.5833 249.448-66.875 246.698-67.625 245.865-67.8333 244.917-68 243.854-68.125 242.792-68.25 241.323-68.3125 239.448-68.3125L232.073-68.3125 232.073-45.375 240.448-45.375C242.781-45.375 244.823-45.6562 246.573-46.2187 248.323-46.7812 249.781-47.5729 250.948-48.5937 252.115-49.6146 252.99-50.8333 253.573-52.25 254.156-53.6667 254.448-55.25 254.448-57ZM334.5-24.25C334.5-20 333.708-16.2708 332.125-13.0625 330.542-9.85417 328.396-7.17708 325.688-5.03125 322.979-2.88542 319.812-1.27083 316.188-0.1875 312.562 0.895833 308.688 1.4375 304.562 1.4375 301.771 1.4375 299.177 1.20833 296.781 0.75 294.385 0.291667 292.271-0.260417 290.438-0.90625 288.604-1.55208 287.073-2.22917 285.844-2.9375 284.615-3.64583 283.729-4.27083 283.188-4.8125 282.646-5.35417 282.26-6.13542 282.031-7.15625 281.802-8.17708 281.688-9.64583 281.688-11.5625 281.688-12.8542 281.729-13.9375 281.812-14.8125 281.896-15.6875 282.031-16.3958 282.219-16.9375 282.406-17.4792 282.656-17.8646 282.969-18.0937 283.281-18.3229 283.646-18.4375 284.062-18.4375 284.646-18.4375 285.469-18.0937 286.531-17.4062 287.594-16.7187 288.958-15.9583 290.625-15.125 292.292-14.2917 294.281-13.5312 296.594-12.8437 298.906-12.1562 301.583-11.8125 304.625-11.8125 306.625-11.8125 308.417-12.0521 310-12.5312 311.583-13.0104 312.927-13.6875 314.031-14.5625 315.135-15.4375 315.979-16.5208 316.562-17.8125 317.146-19.1042 317.438-20.5417 317.438-22.125 317.438-23.9583 316.938-25.5312 315.938-26.8437 314.938-28.1562 313.635-29.3229 312.031-30.3437 310.427-31.3646 308.604-32.3229 306.562-33.2187 304.521-34.1146 302.417-35.0625 300.25-36.0625 298.083-37.0625 295.979-38.1979 293.938-39.4687 291.896-40.7396 290.073-42.2604 288.469-44.0312 286.865-45.8021 285.562-47.8958 284.562-50.3125 283.562-52.7292 283.062-55.625 283.062-59 283.062-62.875 283.781-66.2812 285.219-69.2187 286.656-72.1562 288.594-74.5937 291.031-76.5312 293.469-78.4687 296.344-79.9167 299.656-80.875 302.969-81.8333 306.479-82.3125 310.188-82.3125 312.104-82.3125 314.021-82.1667 315.938-81.875 317.854-81.5833 319.646-81.1875 321.312-80.6875 322.979-80.1875 324.458-79.625 325.75-79 327.042-78.375 327.896-77.8542 328.312-77.4375 328.729-77.0208 329.01-76.6667 329.156-76.375 329.302-76.0833 329.427-75.6979 329.531-75.2187 329.635-74.7396 329.708-74.1354 329.75-73.4062 329.792-72.6771 329.812-71.7708 329.812-70.6875 329.812-69.4792 329.781-68.4583 329.719-67.625 329.656-66.7917 329.552-66.1042 329.406-65.5625 329.26-65.0208 329.052-64.625 328.781-64.375 328.51-64.125 328.146-64 327.688-64 327.229-64 326.5-64.2917 325.5-64.875 324.5-65.4583 323.271-66.0937 321.812-66.7812 320.354-67.4687 318.667-68.0937 316.75-68.6562 314.833-69.2187 312.729-69.5 310.438-69.5 308.646-69.5 307.083-69.2812 305.75-68.8437 304.417-68.4062 303.302-67.8021 302.406-67.0312 301.51-66.2604 300.844-65.3333 300.406-64.25 299.969-63.1667 299.75-62.0208 299.75-60.8125 299.75-59.0208 300.24-57.4687 301.219-56.1562 302.198-54.8437 303.51-53.6771 305.156-52.6562 306.802-51.6354 308.667-50.6771 310.75-49.7812 312.833-48.8854 314.958-47.9375 317.125-46.9375 319.292-45.9375 321.417-44.8021 323.5-43.5312 325.583-42.2604 327.438-40.7396 329.062-38.9687 330.688-37.1979 332-35.1146 333-32.7187 334-30.3229 334.5-27.5 334.5-24.25Z" transform="matrix(0.5 0 0 0.5 57.4056 98)"/></g></g><path d="M671 500C671 410.53 743.53 338 833 338L1855 338C1944.47 338 2017 410.53 2017 500L2017 500C2017 589.47 1944.47 662 1855 662L833 662C743.53 662 671 589.47 671 500Z" fill="#F0EEEF" fill-rule="evenodd"/><text font-family="Calibri,Calibri_MSFontService,sans-serif" font-weight="700" font-size="128" transform="matrix(1 0 0 1 1262.61 543)">USERS</text><g><g><g><path d="M32.3366 99.0242 32.3366 71.7467C32.3366 59.7252 42.0834 49.9784 54.1049 49.9784L70.3477 49.9784C82.3692 49.9784 92.116 59.7252 92.116 71.7467L92.116 99.0242" fill="#BDF693" transform="matrix(1.00405 0 0 1 901.363 356.357)"/><path d="M62.225 49.9784 62.225 49.9784C53.0746 49.9784 45.6568 42.5606 45.6568 33.4102L45.6568 23.3625C45.6568 14.2122 53.0746 6.79429 62.225 6.79429L62.225 6.79429C71.3753 6.79429 78.7932 14.2122 78.7932 23.3625L78.7932 33.4102C78.7959 42.5606 71.378 49.9784 62.225 49.9784Z" fill="#FEE5C6" transform="matrix(1.00405 0 0 1 901.363 356.357)"/><path d="M92.116 99.0242 92.116 71.7467C92.116 59.7252 101.863 49.9784 113.884 49.9784L130.127 49.9784C142.149 49.9784 151.895 59.7252 151.895 71.7467L151.895 99.0242" fill="#FFE773" transform="matrix(1.00405 0 0 1 901.363 356.357)"/><path d="M122.004 49.9784 122.004 49.9784C112.854 49.9784 105.436 42.5606 105.436 33.4102L105.436 23.3625C105.436 14.2122 112.854 6.79429 122.004 6.79429L122.004 6.79429C131.155 6.79429 138.573 14.2122 138.573 23.3625L138.573 33.4102C138.573 42.5606 131.155 49.9784 122.004 49.9784Z" fill="#FEE5C6" transform="matrix(1.00405 0 0 1 901.363 356.357)"/><path d="M151.893 99.0242 151.893 71.7467C151.893 59.7252 161.64 49.9784 173.661 49.9784L189.904 49.9784C201.925 49.9784 211.672 59.7252 211.672 71.7467L211.672 99.0242" fill="#FE4F60" transform="matrix(1.00405 0 0 1 901.363 356.357)"/><path d="M181.784 49.9784 181.784 49.9784C172.634 49.9784 165.216 42.5606 165.216 33.4102L165.216 23.3625C165.216 14.2122 172.634 6.79429 181.784 6.79429L181.784 6.79429C190.934 6.79429 198.352 14.2122 198.352 23.3625L198.352 33.4102C198.352 42.5606 190.934 49.9784 181.784 49.9784Z" fill="#FEE5C6" transform="matrix(1.00405 0 0 1 901.363 356.357)"/><path d="M62.225 168.775 62.225 141.498C62.225 129.476 71.9717 119.73 83.9932 119.73L100.236 119.73C112.258 119.73 122.004 129.476 122.004 141.498L122.004 168.775" fill="#C2ADFF" transform="matrix(1.00405 0 0 1 901.363 356.357)"/><path d="M2.66241 169.041 2.66241 141.766C2.66241 129.745 12.4092 119.998 24.4307 119.998L40.6736 119.998C52.6951 119.998 62.4419 129.745 62.4419 141.766L62.4419 169.044" fill="#FFE773" transform="matrix(1.00405 0 0 1 901.363 356.357)"/><path d="M122.004 168.775 122.004 141.498C122.004 129.476 131.751 119.73 143.773 119.73L160.016 119.73C172.037 119.73 181.784 129.476 181.784 141.498L181.784 168.775" fill="#80AAFF" transform="matrix(1.00405 0 0 1 901.363 356.357)"/><path d="M32.3366 237.217 32.3366 209.94C32.3366 197.918 42.0834 188.171 54.1049 188.171L70.3477 188.171C82.3692 188.171 92.116 197.918 92.116 209.94L92.116 237.217" fill="#80AAFF" transform="matrix(1.00405 0 0 1 901.363 356.357)"/><path d="M62.225 188.171 62.225 188.171C53.0746 188.171 45.6568 180.754 45.6568 171.603L45.6568 161.556C45.6568 152.405 53.0746 144.987 62.225 144.987L62.225 144.987C71.3753 144.987 78.7932 152.405 78.7932 161.556L78.7932 171.603C78.7959 180.754 71.378 188.171 62.225 188.171Z" fill="#FEE5C6" transform="matrix(1.00405 0 0 1 901.363 356.357)"/><path d="M181.784 169.041 181.784 141.766C181.784 129.745 191.531 119.998 203.552 119.998L219.795 119.998C231.816 119.998 241.563 129.745 241.563 141.766L241.563 169.044" fill="#BDF693" transform="matrix(1.00405 0 0 1 901.363 356.357)"/><path d="M92.116 237.217 92.116 209.94C92.116 197.918 101.863 188.171 113.884 188.171L130.127 188.171C142.149 188.171 151.895 197.918 151.895 209.94L151.895 237.217" fill="#FE4F60" transform="matrix(1.00405 0 0 1 901.363 356.357)"/><path d="M122.004 188.171 122.004 188.171C112.854 188.171 105.436 180.754 105.436 171.603L105.436 161.556C105.436 152.405 112.854 144.987 122.004 144.987L122.004 144.987C131.155 144.987 138.573 152.405 138.573 161.556L138.573 171.603C138.573 180.754 131.155 188.171 122.004 188.171Z" fill="#FEE5C6" transform="matrix(1.00405 0 0 1 901.363 356.357)"/><path d="M151.893 237.217 151.893 209.94C151.893 197.918 161.64 188.171 173.661 188.171L189.904 188.171C201.925 188.171 211.672 197.918 211.672 209.94L211.672 237.217" fill="#FFE773" transform="matrix(1.00405 0 0 1 901.363 356.357)"/><path d="M181.784 188.171 181.784 188.171C172.634 188.171 165.216 180.754 165.216 171.603L165.216 161.556C165.216 152.405 172.634 144.987 181.784 144.987L181.784 144.987C190.934 144.987 198.352 152.405 198.352 161.556L198.352 171.603C198.352 180.754 190.934 188.171 181.784 188.171Z" fill="#FEE5C6" transform="matrix(1.00405 0 0 1 901.363 356.357)"/><path d="M92.116 119.73 92.116 119.73C82.9657 119.73 75.5478 112.312 75.5478 103.161L75.5478 93.1138C75.5478 83.9634 82.9657 76.5456 92.116 76.5456L92.116 76.5456C101.266 76.5456 108.684 83.9634 108.684 93.1138L108.684 103.161C108.684 112.312 101.266 119.73 92.116 119.73Z" fill="#FEE5C6" transform="matrix(1.00405 0 0 1 901.363 356.357)"/><path d="M151.893 119.73 151.893 119.73C142.742 119.73 135.325 112.312 135.325 103.161L135.325 93.1138C135.325 83.9634 142.742 76.5456 151.893 76.5456L151.893 76.5456C161.043 76.5456 168.461 83.9634 168.461 93.1138L168.461 103.161C168.464 112.312 161.046 119.73 151.893 119.73Z" fill="#FEE5C6" transform="matrix(1.00405 0 0 1 901.363 356.357)"/><path d="M211.672 119.998 211.672 119.998C202.522 119.998 195.104 112.58 195.104 103.43L195.104 93.3822C195.104 84.2318 202.522 76.814 211.672 76.814L211.672 76.814C220.823 76.814 228.24 84.2318 228.24 93.3822L228.24 103.43C228.24 112.58 220.823 119.998 211.672 119.998Z" fill="#FEE5C6" transform="matrix(1.00405 0 0 1 901.363 356.357)"/><path d="M32.5508 119.998 32.5508 119.998C23.4004 119.998 15.9826 112.58 15.9826 103.43L15.9826 93.3822C15.9826 84.2318 23.4004 76.814 32.5508 76.814L32.5508 76.814C41.7011 76.814 49.119 84.2318 49.119 93.3822L49.119 103.43C49.119 112.58 41.7011 119.998 32.5508 119.998Z" fill="#FEE5C6" transform="matrix(1.00405 0 0 1 901.363 356.357)"/><path d="M92.2299 239.928C90.7333 239.928 89.5187 238.717 89.5187 237.217L89.5187 209.983C89.5187 199.496 80.9865 190.964 70.4969 190.964L54.2811 190.964C43.7942 190.964 35.262 199.493 35.262 209.983L35.262 237.217C35.262 238.717 34.0474 239.928 32.5508 239.928 31.0542 239.928 29.8396 238.717 29.8396 237.217L29.8396 209.983C29.8396 196.506 40.8037 185.542 54.2811 185.542L70.4969 185.542C83.9743 185.542 94.9411 196.506 94.9411 209.983L94.9411 237.217C94.9411 238.717 93.7265 239.928 92.2299 239.928Z" transform="matrix(1.00405 0 0 1 901.363 356.357)"/><path d="M62.3903 190.967C51.7732 190.967 43.138 182.329 43.138 171.712L43.138 161.68C43.138 151.066 51.776 142.428 62.3903 142.428 73.0074 142.428 81.6453 151.066 81.6453 161.68L81.6453 171.712C81.6426 182.329 73.0074 190.967 62.3903 190.967ZM62.3903 147.85C54.7637 147.85 48.5605 154.054 48.5605 161.68L48.5605 171.712C48.5605 179.338 54.7664 185.544 62.3903 185.544 70.017 185.544 76.2229 179.341 76.2229 171.712L76.2229 161.68C76.2202 154.054 70.017 147.85 62.3903 147.85Z" transform="matrix(1.00405 0 0 1 901.363 356.357)"/><path d="M151.909 239.928C150.41 239.928 149.198 238.717 149.198 237.217L149.198 209.983C149.198 199.496 140.666 190.964 130.176 190.964L113.96 190.964C103.473 190.964 94.9411 199.493 94.9411 209.983L94.9411 237.217C94.9411 238.717 93.7265 239.928 92.2299 239.928 90.7333 239.928 89.5187 238.717 89.5187 237.217L89.5187 209.983C89.5187 196.506 100.483 185.542 113.96 185.542L130.176 185.542C143.656 185.542 154.62 196.506 154.62 209.983L154.62 237.217C154.62 238.717 153.408 239.928 151.909 239.928Z" transform="matrix(1.00405 0 0 1 901.363 356.357)"/><path d="M122.069 190.967C111.452 190.967 102.817 182.329 102.817 171.712L102.817 161.68C102.817 151.066 111.455 142.428 122.069 142.428 132.684 142.428 141.322 151.066 141.322 161.68L141.322 171.712C141.322 182.329 132.684 190.967 122.069 190.967ZM122.069 147.85C114.443 147.85 108.24 154.054 108.24 161.68L108.24 171.712C108.24 179.338 114.446 185.544 122.069 185.544 129.696 185.544 135.899 179.341 135.899 171.712L135.899 161.68C135.899 154.054 129.696 147.85 122.069 147.85Z" transform="matrix(1.00405 0 0 1 901.363 356.357)"/><path d="M211.588 239.928C210.089 239.928 208.877 238.717 208.877 237.217L208.877 209.983C208.877 199.496 200.345 190.964 189.855 190.964L173.639 190.964C163.152 190.964 154.62 199.493 154.62 209.983L154.62 237.217C154.62 238.717 153.408 239.928 151.909 239.928 150.41 239.928 149.198 238.717 149.198 237.217L149.198 209.983C149.198 196.506 160.162 185.542 173.639 185.542L189.855 185.542C203.335 185.542 214.299 196.506 214.299 209.983L214.299 237.217C214.299 238.717 213.087 239.928 211.588 239.928Z" transform="matrix(1.00405 0 0 1 901.363 356.357)"/><path d="M181.749 190.967C171.132 190.967 162.494 182.329 162.494 171.712L162.494 161.68C162.494 151.066 171.132 142.428 181.749 142.428 192.363 142.428 201.001 151.066 201.001 161.68L201.001 171.712C201.001 182.329 192.363 190.967 181.749 190.967ZM181.749 147.85C174.122 147.85 167.916 154.054 167.916 161.68L167.916 171.712C167.916 179.338 174.119 185.544 181.749 185.544 189.375 185.544 195.578 179.341 195.578 171.712L195.578 161.68C195.578 154.054 189.375 147.85 181.749 147.85Z" transform="matrix(1.00405 0 0 1 901.363 356.357)"/><path d="M62.3903 147.85C60.8937 147.85 59.6791 146.638 59.6791 145.139L59.6791 141.658C59.6791 128.178 70.6433 117.214 84.1234 117.214L100.339 117.214C113.817 117.214 124.783 128.178 124.783 141.658 124.783 143.157 123.569 144.369 122.072 144.369 120.576 144.369 119.361 143.157 119.361 141.658 119.361 131.171 110.829 122.636 100.342 122.636L84.1261 122.636C73.6364 122.636 65.1043 131.168 65.1043 141.658L65.1043 145.139C65.1015 146.638 63.8869 147.85 62.3903 147.85Z" transform="matrix(1.00405 0 0 1 901.363 356.357)"/><path d="M181.749 147.85C180.249 147.85 179.037 146.638 179.037 145.139L179.037 141.658C179.037 131.171 170.505 122.636 160.016 122.636L143.8 122.636C133.313 122.636 124.778 131.168 124.778 141.658L124.778 145.139C124.778 146.638 123.566 147.85 122.067 147.85 120.567 147.85 119.356 146.638 119.356 145.139L119.356 141.658C119.356 128.178 130.32 117.214 143.797 117.214L160.013 117.214C173.493 117.214 184.457 128.178 184.457 141.658L184.457 145.139C184.46 146.638 183.248 147.85 181.749 147.85Z" transform="matrix(1.00405 0 0 1 901.363 356.357)"/><path d="M92.2299 122.636C81.6128 122.636 72.9776 113.998 72.9776 103.384L72.9776 93.3523C72.9776 82.7353 81.6155 74.1 92.2299 74.1 102.844 74.1 111.482 82.738 111.482 93.3523L111.482 103.384C111.482 114.001 102.847 122.636 92.2299 122.636ZM92.2299 79.5225C84.6033 79.5225 78.4 85.7284 78.4 93.3523L78.4 103.384C78.4 111.01 84.606 117.214 92.2299 117.214 99.8538 117.214 106.06 111.008 106.06 103.384L106.06 93.3523C106.06 85.7284 99.8565 79.5225 92.2299 79.5225Z" transform="matrix(1.00405 0 0 1 901.363 356.357)"/><path d="M151.909 122.636C141.292 122.636 132.654 113.998 132.654 103.384L132.654 93.3523C132.654 82.7353 141.292 74.1 151.909 74.1 162.523 74.1 171.161 82.738 171.161 93.3523L171.161 103.384C171.161 114.001 162.523 122.636 151.909 122.636ZM151.909 79.5225C144.282 79.5225 138.076 85.7284 138.076 93.3523L138.076 103.384C138.076 111.01 144.28 117.214 151.909 117.214 159.536 117.214 165.739 111.008 165.739 103.384L165.739 93.3523C165.739 85.7284 159.536 79.5225 151.909 79.5225Z" transform="matrix(1.00405 0 0 1 901.363 356.357)"/><path d="M32.5508 79.5225C31.0542 79.5225 29.8396 78.3078 29.8396 76.8113L29.8396 71.6383C29.8396 58.1609 40.8037 47.1967 54.2811 47.1967L70.4969 47.1967C83.9743 47.1967 94.9411 58.1609 94.9411 71.6383 94.9411 73.1349 93.7265 74.3495 92.2299 74.3495 90.7333 74.3495 89.5187 73.1349 89.5187 71.6383 89.5187 61.1513 80.9865 52.6191 70.4969 52.6191L54.2811 52.6191C43.7942 52.6191 35.262 61.1513 35.262 71.6383L35.262 76.8113C35.262 78.3078 34.0474 79.5225 32.5508 79.5225Z" transform="matrix(1.00405 0 0 1 901.363 356.357)"/><path d="M62.3903 52.6191C51.7732 52.6191 43.138 43.9812 43.138 33.3668L43.138 23.3354C43.138 12.7183 51.776 4.08308 62.3903 4.08308 73.0074 4.08308 81.6453 12.721 81.6453 23.3354L81.6453 33.3668C81.6426 43.9812 73.0074 52.6191 62.3903 52.6191ZM62.3903 9.50279C54.7637 9.50279 48.5605 15.7087 48.5605 23.3327L48.5605 33.3641C48.5605 40.9908 54.7664 47.194 62.3903 47.194 70.017 47.194 76.2229 40.9881 76.2229 33.3641L76.2229 23.3327C76.2202 15.7087 70.017 9.50279 62.3903 9.50279Z" transform="matrix(1.00405 0 0 1 901.363 356.357)"/><path d="M92.2299 79.5225C90.7333 79.5225 89.5187 78.3078 89.5187 76.8113L89.5187 71.6383C89.5187 58.1609 100.483 47.1967 113.96 47.1967L130.176 47.1967C143.656 47.1967 154.62 58.1609 154.62 71.6383 154.62 73.1349 153.408 74.3495 151.909 74.3495 150.41 74.3495 149.198 73.1349 149.198 71.6383 149.198 61.1513 140.666 52.6191 130.176 52.6191L113.96 52.6191C103.473 52.6191 94.9411 61.1513 94.9411 71.6383L94.9411 76.8113C94.9411 78.3078 93.7265 79.5225 92.2299 79.5225Z" transform="matrix(1.00405 0 0 1 901.363 356.357)"/><path d="M122.069 52.6191C111.452 52.6191 102.817 43.9812 102.817 33.3668L102.817 23.3354C102.817 12.7183 111.455 4.08308 122.069 4.08308 132.684 4.08308 141.322 12.721 141.322 23.3354L141.322 33.3668C141.322 43.9812 132.684 52.6191 122.069 52.6191ZM122.069 9.50279C114.443 9.50279 108.24 15.7087 108.24 23.3327L108.24 33.3641C108.24 40.9908 114.446 47.194 122.069 47.194 129.696 47.194 135.899 40.9881 135.899 33.3641L135.899 23.3327C135.899 15.7087 129.696 9.50279 122.069 9.50279Z" transform="matrix(1.00405 0 0 1 901.363 356.357)"/><path d="M211.588 79.5225C210.089 79.5225 208.877 78.3078 208.877 76.8113L208.877 71.6383C208.877 61.1513 200.345 52.6191 189.855 52.6191L173.639 52.6191C163.152 52.6191 154.62 61.1513 154.62 71.6383L154.62 76.8113C154.62 78.3078 153.408 79.5225 151.909 79.5225 150.41 79.5225 149.198 78.3078 149.198 76.8113L149.198 71.6383C149.198 58.1609 160.162 47.1967 173.639 47.1967L189.855 47.1967C203.335 47.1967 214.299 58.1609 214.299 71.6383L214.299 76.8113C214.299 78.3078 213.087 79.5225 211.588 79.5225Z" transform="matrix(1.00405 0 0 1 901.363 356.357)"/><path d="M181.749 52.6191C171.132 52.6191 162.494 43.9812 162.494 33.3668L162.494 23.3354C162.494 12.7183 171.132 4.08308 181.749 4.08308 192.363 4.08308 201.001 12.721 201.001 23.3354L201.001 33.3668C201.001 43.9812 192.363 52.6191 181.749 52.6191ZM181.749 9.50279C174.122 9.50279 167.916 15.7087 167.916 23.3327L167.916 33.3641C167.916 40.9908 174.119 47.194 181.749 47.194 189.375 47.194 195.578 40.9881 195.578 33.3641L195.578 23.3327C195.578 15.7087 189.375 9.50279 181.749 9.50279Z" transform="matrix(1.00405 0 0 1 901.363 356.357)"/><path d="M211.458 122.636C200.841 122.636 192.203 113.998 192.203 103.384L192.203 93.3523C192.203 82.7353 200.841 74.1 211.458 74.1 222.072 74.1 230.71 82.738 230.71 93.3523L230.71 103.384C230.71 114.001 222.072 122.636 211.458 122.636ZM211.458 79.5225C203.831 79.5225 197.625 85.7284 197.625 93.3523L197.625 103.384C197.625 111.01 203.829 117.214 211.458 117.214 219.085 117.214 225.288 111.008 225.288 103.384L225.288 93.3523C225.288 85.7284 219.085 79.5225 211.458 79.5225Z" transform="matrix(1.00405 0 0 1 901.363 356.357)"/><path d="M241.298 171.601C239.798 171.601 238.586 170.389 238.586 168.889L238.586 141.658C238.586 131.171 230.054 122.636 219.565 122.636L203.349 122.636C192.862 122.636 184.33 131.168 184.33 141.658L184.33 145.139C184.33 146.638 183.118 147.85 181.618 147.85 180.119 147.85 178.907 146.638 178.907 145.139L178.907 141.658C178.907 128.178 189.871 117.214 203.349 117.214L219.565 117.214C233.045 117.214 244.009 128.178 244.009 141.658L244.009 168.889C244.009 170.389 242.797 171.601 241.298 171.601Z" transform="matrix(1.00405 0 0 1 901.363 356.357)"/><path d="M32.5508 122.636C21.9337 122.636 13.2985 113.998 13.2985 103.384L13.2985 93.3523C13.2985 82.7353 21.9364 74.1 32.5508 74.1 43.1652 74.1 51.8031 82.738 51.8031 93.3523L51.8031 103.384C51.8031 114.001 43.1652 122.636 32.5508 122.636ZM32.5508 79.5225C24.9241 79.5225 18.7209 85.7284 18.7209 93.3523L18.7209 103.384C18.7209 111.01 24.9269 117.214 32.5508 117.214 40.1747 117.214 46.3806 111.008 46.3806 103.384L46.3806 93.3523C46.3806 85.7284 40.1747 79.5225 32.5508 79.5225Z" transform="matrix(1.00405 0 0 1 901.363 356.357)"/><path d="M2.71121 171.601C1.21462 171.601 0 170.389 0 168.889L0 141.658C0 128.178 10.9641 117.214 24.4415 117.214L40.6573 117.214C54.1347 117.214 65.0988 128.178 65.0988 141.658L65.0988 145.139C65.0988 146.638 63.8842 147.85 62.3876 147.85 60.891 147.85 59.6764 146.638 59.6764 145.139L59.6764 141.658C59.6764 131.171 51.1442 122.636 40.6573 122.636L24.4415 122.636C13.9546 122.636 5.42242 131.171 5.42242 141.658L5.42242 168.889C5.42242 170.389 4.2078 171.601 2.71121 171.601Z" transform="matrix(1.00405 0 0 1 901.363 356.357)"/></g></g></g></g></svg>