<svg width="72" height="72" xmlns="http://www.w3.org/2000/svg" xmlns:xlink="http://www.w3.org/1999/xlink" xml:space="preserve" overflow="hidden"><g transform="translate(-230 -526)"><path d="M239.822 555.261 239.822 547.31C239.822 543.805 242.663 540.964 246.167 540.964L250.902 540.964C254.406 540.964 257.247 543.805 257.247 547.31L257.247 555.261" fill="#BDF693"/><path d="M248.534 540.964 248.534 540.964C245.867 540.964 243.704 538.802 243.704 536.135L243.704 533.206C243.704 530.538 245.867 528.376 248.534 528.376L248.534 528.376C251.201 528.376 253.364 530.538 253.364 533.206L253.364 536.135C253.364 538.802 251.202 540.964 248.534 540.964Z" fill="#FEE5C6"/><path d="M257.247 555.261 257.247 547.31C257.247 543.805 260.088 540.964 263.593 540.964L268.327 540.964C271.832 540.964 274.673 543.805 274.673 547.31L274.673 555.261" fill="#FFE773"/><path d="M265.96 540.964 265.96 540.964C263.292 540.964 261.13 538.802 261.13 536.135L261.13 533.206C261.13 530.538 263.292 528.376 265.96 528.376L265.96 528.376C268.627 528.376 270.789 530.538 270.789 533.206L270.789 536.135C270.789 538.802 268.627 540.964 265.96 540.964Z" fill="#FEE5C6"/><path d="M274.672 555.261 274.672 547.31C274.672 543.805 277.513 540.964 281.017 540.964L285.752 540.964C289.257 540.964 292.098 543.805 292.098 547.31L292.098 555.261" fill="#FE4F60"/><path d="M283.385 540.964 283.385 540.964C280.718 540.964 278.556 538.802 278.556 536.135L278.556 533.206C278.556 530.538 280.718 528.376 283.385 528.376L283.385 528.376C286.053 528.376 288.215 530.538 288.215 533.206L288.215 536.135C288.215 538.802 286.053 540.964 283.385 540.964Z" fill="#FEE5C6"/><path d="M248.534 575.593 248.534 567.642C248.534 564.138 251.375 561.297 254.879 561.297L259.614 561.297C263.118 561.297 265.96 564.138 265.96 567.642L265.96 575.593" fill="#C2ADFF"/><path d="M231.172 575.671 231.172 567.72C231.172 564.216 234.013 561.375 237.517 561.375L242.252 561.375C245.756 561.375 248.597 564.216 248.597 567.72L248.597 575.672" fill="#FFE773"/><path d="M265.96 575.593 265.96 567.642C265.96 564.138 268.801 561.297 272.305 561.297L277.04 561.297C280.544 561.297 283.385 564.138 283.385 567.642L283.385 575.593" fill="#80AAFF"/><path d="M239.822 595.544 239.822 587.593C239.822 584.088 242.663 581.247 246.167 581.247L250.902 581.247C254.406 581.247 257.247 584.088 257.247 587.593L257.247 595.544" fill="#80AAFF"/><path d="M248.534 581.247 248.534 581.247C245.867 581.247 243.704 579.085 243.704 576.418L243.704 573.489C243.704 570.821 245.867 568.659 248.534 568.659L248.534 568.659C251.201 568.659 253.364 570.821 253.364 573.489L253.364 576.418C253.364 579.085 251.202 581.247 248.534 581.247Z" fill="#FEE5C6"/><path d="M283.385 575.671 283.385 567.72C283.385 564.216 286.226 561.375 289.731 561.375L294.465 561.375C297.97 561.375 300.811 564.216 300.811 567.72L300.811 575.672" fill="#BDF693"/><path d="M257.247 595.544 257.247 587.593C257.247 584.088 260.088 581.247 263.593 581.247L268.327 581.247C271.832 581.247 274.673 584.088 274.673 587.593L274.673 595.544" fill="#FE4F60"/><path d="M265.96 581.247 265.96 581.247C263.292 581.247 261.13 579.085 261.13 576.418L261.13 573.489C261.13 570.821 263.292 568.659 265.96 568.659L265.96 568.659C268.627 568.659 270.789 570.821 270.789 573.489L270.789 576.418C270.789 579.085 268.627 581.247 265.96 581.247Z" fill="#FEE5C6"/><path d="M274.672 595.544 274.672 587.593C274.672 584.088 277.513 581.247 281.017 581.247L285.752 581.247C289.257 581.247 292.098 584.088 292.098 587.593L292.098 595.544" fill="#FFE773"/><path d="M283.385 581.247 283.385 581.247C280.718 581.247 278.556 579.085 278.556 576.418L278.556 573.489C278.556 570.821 280.718 568.659 283.385 568.659L283.385 568.659C286.053 568.659 288.215 570.821 288.215 573.489L288.215 576.418C288.215 579.085 286.053 581.247 283.385 581.247Z" fill="#FEE5C6"/><path d="M257.247 561.297 257.247 561.297C254.58 561.297 252.418 559.134 252.418 556.467L252.418 553.538C252.418 550.871 254.58 548.708 257.247 548.708L257.247 548.708C259.915 548.708 262.077 550.871 262.077 553.538L262.077 556.467C262.077 559.134 259.915 561.297 257.247 561.297Z" fill="#FEE5C6"/><path d="M274.672 561.297 274.672 561.297C272.005 561.297 269.842 559.134 269.842 556.467L269.842 553.538C269.842 550.871 272.005 548.708 274.672 548.708L274.672 548.708C277.339 548.708 279.502 550.871 279.502 553.538L279.502 556.467C279.502 559.134 277.34 561.297 274.672 561.297Z" fill="#FEE5C6"/><path d="M292.098 561.375 292.098 561.375C289.43 561.375 287.268 559.213 287.268 556.545L287.268 553.616C287.268 550.949 289.43 548.787 292.098 548.787L292.098 548.787C294.765 548.787 296.927 550.949 296.927 553.616L296.927 556.545C296.927 559.213 294.765 561.375 292.098 561.375Z" fill="#FEE5C6"/><path d="M239.884 561.375 239.884 561.375C237.217 561.375 235.054 559.213 235.054 556.545L235.054 553.616C235.054 550.949 237.217 548.787 239.884 548.787L239.884 548.787C242.551 548.787 244.714 550.949 244.714 553.616L244.714 556.545C244.714 559.213 242.551 561.375 239.884 561.375Z" fill="#FEE5C6"/><path d="M257.28 596.334C256.844 596.334 256.49 595.981 256.49 595.544L256.49 587.605C256.49 584.548 254.003 582.061 250.945 582.061L246.218 582.061C243.162 582.061 240.674 584.548 240.674 587.605L240.674 595.544C240.674 595.981 240.32 596.334 239.884 596.334 239.448 596.334 239.094 595.981 239.094 595.544L239.094 587.605C239.094 583.677 242.29 580.481 246.218 580.481L250.945 580.481C254.874 580.481 258.071 583.677 258.071 587.605L258.071 595.544C258.071 595.981 257.717 596.334 257.28 596.334Z"/><path d="M248.582 582.062C245.487 582.062 242.97 579.544 242.97 576.449L242.97 573.525C242.97 570.431 245.488 567.913 248.582 567.913 251.677 567.913 254.195 570.431 254.195 573.525L254.195 576.449C254.194 579.544 251.677 582.062 248.582 582.062ZM248.582 569.494C246.359 569.494 244.551 571.302 244.551 573.525L244.551 576.449C244.551 578.672 246.36 580.481 248.582 580.481 250.805 580.481 252.614 578.673 252.614 576.449L252.614 573.525C252.614 571.302 250.805 569.494 248.582 569.494Z"/><path d="M274.677 596.334C274.24 596.334 273.887 595.981 273.887 595.544L273.887 587.605C273.887 584.548 271.399 582.061 268.342 582.061L263.615 582.061C260.558 582.061 258.071 584.548 258.071 587.605L258.071 595.544C258.071 595.981 257.717 596.334 257.28 596.334 256.844 596.334 256.49 595.981 256.49 595.544L256.49 587.605C256.49 583.677 259.686 580.481 263.615 580.481L268.342 580.481C272.271 580.481 275.467 583.677 275.467 587.605L275.467 595.544C275.467 595.981 275.114 596.334 274.677 596.334Z"/><path d="M265.979 582.062C262.884 582.062 260.367 579.544 260.367 576.449L260.367 573.525C260.367 570.431 262.885 567.913 265.979 567.913 269.073 567.913 271.591 570.431 271.591 573.525L271.591 576.449C271.591 579.544 269.073 582.062 265.979 582.062ZM265.979 569.494C263.755 569.494 261.947 571.302 261.947 573.525L261.947 576.449C261.947 578.672 263.756 580.481 265.979 580.481 268.202 580.481 270.01 578.673 270.01 576.449L270.01 573.525C270.01 571.302 268.202 569.494 265.979 569.494Z"/><path d="M292.073 596.334C291.636 596.334 291.283 595.981 291.283 595.544L291.283 587.605C291.283 584.548 288.796 582.061 285.738 582.061L281.011 582.061C277.954 582.061 275.467 584.548 275.467 587.605L275.467 595.544C275.467 595.981 275.114 596.334 274.677 596.334 274.24 596.334 273.887 595.981 273.887 595.544L273.887 587.605C273.887 583.677 277.083 580.481 281.011 580.481L285.738 580.481C289.667 580.481 292.863 583.677 292.863 587.605L292.863 595.544C292.863 595.981 292.51 596.334 292.073 596.334Z"/><path d="M283.375 582.062C280.28 582.062 277.762 579.544 277.762 576.449L277.762 573.525C277.762 570.431 280.28 567.913 283.375 567.913 286.469 567.913 288.987 570.431 288.987 573.525L288.987 576.449C288.987 579.544 286.469 582.062 283.375 582.062ZM283.375 569.494C281.152 569.494 279.343 571.302 279.343 573.525L279.343 576.449C279.343 578.672 281.151 580.481 283.375 580.481 285.598 580.481 287.406 578.673 287.406 576.449L287.406 573.525C287.406 571.302 285.598 569.494 283.375 569.494Z"/><path d="M248.582 569.494C248.146 569.494 247.792 569.141 247.792 568.703L247.792 567.689C247.792 563.759 250.988 560.563 254.917 560.563L259.644 560.563C263.573 560.563 266.77 563.759 266.77 567.689 266.77 568.126 266.416 568.479 265.979 568.479 265.543 568.479 265.189 568.126 265.189 567.689 265.189 564.632 262.702 562.144 259.645 562.144L254.918 562.144C251.86 562.144 249.373 564.631 249.373 567.689L249.373 568.703C249.373 569.141 249.019 569.494 248.582 569.494Z"/><path d="M283.375 569.494C282.938 569.494 282.585 569.141 282.585 568.703L282.585 567.689C282.585 564.632 280.098 562.144 277.04 562.144L272.313 562.144C269.256 562.144 266.768 564.631 266.768 567.689L266.768 568.703C266.768 569.141 266.415 569.494 265.978 569.494 265.541 569.494 265.188 569.141 265.188 568.703L265.188 567.689C265.188 563.759 268.384 560.563 272.312 560.563L277.039 560.563C280.969 560.563 284.165 563.759 284.165 567.689L284.165 568.703C284.165 569.141 283.812 569.494 283.375 569.494Z"/><path d="M257.28 562.144C254.186 562.144 251.668 559.626 251.668 556.532L251.668 553.608C251.668 550.513 254.186 547.996 257.28 547.996 260.375 547.996 262.892 550.514 262.892 553.608L262.892 556.532C262.892 559.627 260.375 562.144 257.28 562.144ZM257.28 549.576C255.057 549.576 253.249 551.385 253.249 553.608L253.249 556.532C253.249 558.755 255.058 560.563 257.28 560.563 259.503 560.563 261.312 558.754 261.312 556.532L261.312 553.608C261.312 551.385 259.504 549.576 257.28 549.576Z"/><path d="M274.677 562.144C271.582 562.144 269.064 559.626 269.064 556.532L269.064 553.608C269.064 550.513 271.582 547.996 274.677 547.996 277.771 547.996 280.289 550.514 280.289 553.608L280.289 556.532C280.289 559.627 277.771 562.144 274.677 562.144ZM274.677 549.576C272.454 549.576 270.645 551.385 270.645 553.608L270.645 556.532C270.645 558.755 272.453 560.563 274.677 560.563 276.9 560.563 278.708 558.754 278.708 556.532L278.708 553.608C278.708 551.385 276.9 549.576 274.677 549.576Z"/><path d="M239.884 549.576C239.448 549.576 239.094 549.222 239.094 548.786L239.094 547.278C239.094 543.349 242.29 540.153 246.218 540.153L250.945 540.153C254.874 540.153 258.071 543.349 258.071 547.278 258.071 547.714 257.717 548.068 257.28 548.068 256.844 548.068 256.49 547.714 256.49 547.278 256.49 544.221 254.003 541.734 250.945 541.734L246.218 541.734C243.162 541.734 240.674 544.221 240.674 547.278L240.674 548.786C240.674 549.222 240.32 549.576 239.884 549.576Z"/><path d="M248.582 541.734C245.487 541.734 242.97 539.216 242.97 536.122L242.97 533.198C242.97 530.103 245.488 527.586 248.582 527.586 251.677 527.586 254.195 530.104 254.195 533.198L254.195 536.122C254.194 539.216 251.677 541.734 248.582 541.734ZM248.582 529.166C246.359 529.166 244.551 530.975 244.551 533.197L244.551 536.121C244.551 538.344 246.36 540.153 248.582 540.153 250.805 540.153 252.614 538.344 252.614 536.121L252.614 533.197C252.614 530.975 250.805 529.166 248.582 529.166Z"/><path d="M257.28 549.576C256.844 549.576 256.49 549.222 256.49 548.786L256.49 547.278C256.49 543.349 259.686 540.153 263.615 540.153L268.342 540.153C272.271 540.153 275.467 543.349 275.467 547.278 275.467 547.714 275.114 548.068 274.677 548.068 274.24 548.068 273.887 547.714 273.887 547.278 273.887 544.221 271.399 541.734 268.342 541.734L263.615 541.734C260.558 541.734 258.071 544.221 258.071 547.278L258.071 548.786C258.071 549.222 257.717 549.576 257.28 549.576Z"/><path d="M265.979 541.734C262.884 541.734 260.367 539.216 260.367 536.122L260.367 533.198C260.367 530.103 262.885 527.586 265.979 527.586 269.073 527.586 271.591 530.104 271.591 533.198L271.591 536.122C271.591 539.216 269.073 541.734 265.979 541.734ZM265.979 529.166C263.755 529.166 261.947 530.975 261.947 533.197L261.947 536.121C261.947 538.344 263.756 540.153 265.979 540.153 268.202 540.153 270.01 538.344 270.01 536.121L270.01 533.197C270.01 530.975 268.202 529.166 265.979 529.166Z"/><path d="M292.073 549.576C291.636 549.576 291.283 549.222 291.283 548.786L291.283 547.278C291.283 544.221 288.796 541.734 285.738 541.734L281.011 541.734C277.954 541.734 275.467 544.221 275.467 547.278L275.467 548.786C275.467 549.222 275.114 549.576 274.677 549.576 274.24 549.576 273.887 549.222 273.887 548.786L273.887 547.278C273.887 543.349 277.083 540.153 281.011 540.153L285.738 540.153C289.667 540.153 292.863 543.349 292.863 547.278L292.863 548.786C292.863 549.222 292.51 549.576 292.073 549.576Z"/><path d="M283.375 541.734C280.28 541.734 277.762 539.216 277.762 536.122L277.762 533.198C277.762 530.103 280.28 527.586 283.375 527.586 286.469 527.586 288.987 530.104 288.987 533.198L288.987 536.122C288.987 539.216 286.469 541.734 283.375 541.734ZM283.375 529.166C281.152 529.166 279.343 530.975 279.343 533.197L279.343 536.121C279.343 538.344 281.151 540.153 283.375 540.153 285.598 540.153 287.406 538.344 287.406 536.121L287.406 533.197C287.406 530.975 285.598 529.166 283.375 529.166Z"/><path d="M292.035 562.144C288.94 562.144 286.422 559.626 286.422 556.532L286.422 553.608C286.422 550.513 288.94 547.996 292.035 547.996 295.129 547.996 297.647 550.514 297.647 553.608L297.647 556.532C297.647 559.627 295.129 562.144 292.035 562.144ZM292.035 549.576C289.812 549.576 288.003 551.385 288.003 553.608L288.003 556.532C288.003 558.755 289.811 560.563 292.035 560.563 294.258 560.563 296.067 558.754 296.067 556.532L296.067 553.608C296.067 551.385 294.258 549.576 292.035 549.576Z"/><path d="M300.733 576.417C300.296 576.417 299.943 576.064 299.943 575.627L299.943 567.689C299.943 564.632 297.456 562.144 294.398 562.144L289.671 562.144C286.614 562.144 284.127 564.631 284.127 567.689L284.127 568.703C284.127 569.141 283.774 569.494 283.337 569.494 282.9 569.494 282.547 569.141 282.547 568.703L282.547 567.689C282.547 563.759 285.743 560.563 289.671 560.563L294.398 560.563C298.328 560.563 301.524 563.759 301.524 567.689L301.524 575.627C301.524 576.064 301.17 576.417 300.733 576.417Z"/><path d="M239.884 562.144C236.789 562.144 234.272 559.626 234.272 556.532L234.272 553.608C234.272 550.513 236.79 547.996 239.884 547.996 242.978 547.996 245.496 550.514 245.496 553.608L245.496 556.532C245.496 559.627 242.978 562.144 239.884 562.144ZM239.884 549.576C237.661 549.576 235.853 551.385 235.853 553.608L235.853 556.532C235.853 558.755 237.662 560.563 239.884 560.563 242.106 560.563 243.915 558.754 243.915 556.532L243.915 553.608C243.915 551.385 242.106 549.576 239.884 549.576Z"/><path d="M231.186 576.417C230.75 576.417 230.396 576.064 230.396 575.627L230.396 567.689C230.396 563.759 233.592 560.563 237.52 560.563L242.247 560.563C246.176 560.563 249.372 563.759 249.372 567.689L249.372 568.703C249.372 569.141 249.018 569.494 248.581 569.494 248.145 569.494 247.791 569.141 247.791 568.703L247.791 567.689C247.791 564.632 245.304 562.144 242.247 562.144L237.52 562.144C234.463 562.144 231.976 564.632 231.976 567.689L231.976 575.627C231.976 576.064 231.622 576.417 231.186 576.417Z"/></g></svg>